%TF.GenerationSoftware,KiCad,Pcbnew,4.0.2-stable*%
%TF.CreationDate,2016-06-26T16:54:10-05:00*%
%TF.ProjectId,knee,6B6E65652E6B696361645F7063620000,rev?*%
%TF.FileFunction,Legend,Top*%
%FSLAX46Y46*%
G04 Gerber Fmt 4.6, Leading zero omitted, Abs format (unit mm)*
G04 Created by KiCad (PCBNEW 4.0.2-stable) date 6/26/2016 4:54:10 PM*
%MOMM*%
G01*
G04 APERTURE LIST*
%ADD10C,0.100000*%
%ADD11C,0.150000*%
%ADD12C,0.001000*%
%ADD13C,0.078740*%
%ADD14C,0.075000*%
%ADD15C,0.050000*%
%ADD16C,0.074930*%
%ADD17C,0.076200*%
%ADD18C,0.119380*%
%ADD19C,0.099060*%
%ADD20C,0.304800*%
G04 APERTURE END LIST*
D10*
D11*
X188291421Y-55575000D02*
G75*
G03X188291421Y-55575000I-141421J0D01*
G01*
X190650000Y-55075000D02*
X190650000Y-58075000D01*
X190650000Y-58075000D02*
X187650000Y-58075000D01*
X187650000Y-58075000D02*
X187650000Y-55075000D01*
X187650000Y-55075000D02*
X190650000Y-55075000D01*
X180650000Y-56250000D02*
X180650000Y-57250000D01*
X182350000Y-57250000D02*
X182350000Y-56250000D01*
X193150000Y-56750000D02*
X193150000Y-57750000D01*
X194850000Y-57750000D02*
X194850000Y-56750000D01*
X182250000Y-61100000D02*
X183250000Y-61100000D01*
X183250000Y-59400000D02*
X182250000Y-59400000D01*
X182350000Y-52750000D02*
X182350000Y-51750000D01*
X180650000Y-51750000D02*
X180650000Y-52750000D01*
X195600000Y-67000000D02*
X195600000Y-66000000D01*
X193900000Y-66000000D02*
X193900000Y-67000000D01*
X188350000Y-67250000D02*
X188350000Y-66250000D01*
X186650000Y-66250000D02*
X186650000Y-67250000D01*
X197949020Y-42750000D02*
X200649020Y-42750000D01*
X197949020Y-41250000D02*
X200649020Y-41250000D01*
X199449020Y-42150000D02*
X199449020Y-41900000D01*
X199449020Y-41900000D02*
X199299020Y-42050000D01*
X199199020Y-41650000D02*
X199199020Y-42350000D01*
X199549020Y-42000000D02*
X199899020Y-42000000D01*
X199199020Y-42000000D02*
X199549020Y-41650000D01*
X199549020Y-41650000D02*
X199549020Y-42350000D01*
X199549020Y-42350000D02*
X199199020Y-42000000D01*
X184250000Y-51817500D02*
X184250000Y-51436500D01*
X184250000Y-52833500D02*
X184250000Y-52452500D01*
X184250000Y-52452500D02*
X183869000Y-51817500D01*
X183869000Y-51817500D02*
X184631000Y-51817500D01*
X184631000Y-51817500D02*
X184250000Y-52452500D01*
X183742000Y-52452500D02*
X184758000Y-52452500D01*
X185150000Y-54135000D02*
X185150000Y-50595000D01*
X183350000Y-54135000D02*
X183350000Y-50595000D01*
X189149020Y-59500000D02*
X186449020Y-59500000D01*
X189149020Y-61000000D02*
X186449020Y-61000000D01*
X187649020Y-60100000D02*
X187649020Y-60350000D01*
X187649020Y-60350000D02*
X187799020Y-60200000D01*
X187899020Y-60600000D02*
X187899020Y-59900000D01*
X187549020Y-60250000D02*
X187199020Y-60250000D01*
X187899020Y-60250000D02*
X187549020Y-60600000D01*
X187549020Y-60600000D02*
X187549020Y-59900000D01*
X187549020Y-59900000D02*
X187899020Y-60250000D01*
X179600980Y-72000000D02*
X182300980Y-72000000D01*
X179600980Y-70500000D02*
X182300980Y-70500000D01*
X181100980Y-71400000D02*
X181100980Y-71150000D01*
X181100980Y-71150000D02*
X180950980Y-71300000D01*
X180850980Y-70900000D02*
X180850980Y-71600000D01*
X181200980Y-71250000D02*
X181550980Y-71250000D01*
X180850980Y-71250000D02*
X181200980Y-70900000D01*
X181200980Y-70900000D02*
X181200980Y-71600000D01*
X181200980Y-71600000D02*
X180850980Y-71250000D01*
X179449020Y-79000000D02*
X182149020Y-79000000D01*
X179449020Y-77500000D02*
X182149020Y-77500000D01*
X180949020Y-78400000D02*
X180949020Y-78150000D01*
X180949020Y-78150000D02*
X180799020Y-78300000D01*
X180699020Y-77900000D02*
X180699020Y-78600000D01*
X181049020Y-78250000D02*
X181399020Y-78250000D01*
X180699020Y-78250000D02*
X181049020Y-77900000D01*
X181049020Y-77900000D02*
X181049020Y-78600000D01*
X181049020Y-78600000D02*
X180699020Y-78250000D01*
D12*
X192700220Y-49799400D02*
X192700220Y-46700600D01*
X192700220Y-46700600D02*
X194402020Y-46700600D01*
X194402020Y-46700600D02*
X194402020Y-49799400D01*
X194402020Y-49799400D02*
X192700220Y-49799400D01*
X180399360Y-38850220D02*
X188100640Y-38850220D01*
X188100640Y-38850220D02*
X188100640Y-48050100D01*
X188100640Y-48050100D02*
X180399360Y-48050100D01*
X180399360Y-48050100D02*
X180399360Y-38850220D01*
D13*
X187705870Y-50526480D02*
G75*
G03X187705870Y-50526480I-159070J0D01*
G01*
X188405320Y-52972500D02*
X187389320Y-52972500D01*
X188405320Y-50369000D02*
X187389320Y-50369000D01*
X187389320Y-52972500D02*
X187389320Y-50369000D01*
X188405320Y-50369000D02*
X188405320Y-52972500D01*
D11*
X185125000Y-56100000D02*
X185125000Y-57300000D01*
X183375000Y-57300000D02*
X183375000Y-56100000D01*
X199900000Y-45375000D02*
X198700000Y-45375000D01*
X198700000Y-43625000D02*
X199900000Y-43625000D01*
X195650000Y-53375000D02*
X194450000Y-53375000D01*
X194450000Y-51625000D02*
X195650000Y-51625000D01*
X192150000Y-61125000D02*
X190950000Y-61125000D01*
X190950000Y-59375000D02*
X192150000Y-59375000D01*
X192050000Y-66625000D02*
X190850000Y-66625000D01*
X190850000Y-64875000D02*
X192050000Y-64875000D01*
X180350000Y-72625000D02*
X181550000Y-72625000D01*
X181550000Y-74375000D02*
X180350000Y-74375000D01*
X180350000Y-75125000D02*
X181550000Y-75125000D01*
X181550000Y-76875000D02*
X180350000Y-76875000D01*
D12*
X193049520Y-70228040D02*
X193049520Y-76725360D01*
X193049520Y-76725360D02*
X188650240Y-76725360D01*
X188650240Y-70228040D02*
X188650240Y-76725360D01*
X193049520Y-70228040D02*
X188650240Y-70228040D01*
X189252220Y-70228040D02*
X188650240Y-70827480D01*
D11*
X179650000Y-67500000D02*
X182350000Y-67500000D01*
X179650000Y-66000000D02*
X182350000Y-66000000D01*
X181150000Y-66900000D02*
X181150000Y-66650000D01*
X181150000Y-66650000D02*
X181000000Y-66800000D01*
X180900000Y-66400000D02*
X180900000Y-67100000D01*
X181250000Y-66750000D02*
X181600000Y-66750000D01*
X180900000Y-66750000D02*
X181250000Y-66400000D01*
X181250000Y-66400000D02*
X181250000Y-67100000D01*
X181250000Y-67100000D02*
X180900000Y-66750000D01*
X179699020Y-63250000D02*
X182399020Y-63250000D01*
X179699020Y-61750000D02*
X182399020Y-61750000D01*
X181199020Y-62650000D02*
X181199020Y-62400000D01*
X181199020Y-62400000D02*
X181049020Y-62550000D01*
X180949020Y-62150000D02*
X180949020Y-62850000D01*
X181299020Y-62500000D02*
X181649020Y-62500000D01*
X180949020Y-62500000D02*
X181299020Y-62150000D01*
X181299020Y-62150000D02*
X181299020Y-62850000D01*
X181299020Y-62850000D02*
X180949020Y-62500000D01*
X196950000Y-58750000D02*
X202200000Y-58750000D01*
X202200000Y-58750000D02*
X202200000Y-53250000D01*
X202200000Y-53250000D02*
X198550000Y-53250000D01*
X196200000Y-57250000D02*
X195700000Y-57750000D01*
X195700000Y-57750000D02*
X195700000Y-56750000D01*
X195700000Y-56750000D02*
X196200000Y-57250000D01*
X196950000Y-79750000D02*
X202200000Y-79750000D01*
X202200000Y-79750000D02*
X202200000Y-70500000D01*
X202200000Y-70500000D02*
X198550000Y-70500000D01*
X196200000Y-78250000D02*
X195700000Y-78750000D01*
X195700000Y-78750000D02*
X195700000Y-77750000D01*
X195700000Y-77750000D02*
X196200000Y-78250000D01*
X196950000Y-64500000D02*
X202200000Y-64500000D01*
X202200000Y-64500000D02*
X202200000Y-59000000D01*
X202200000Y-59000000D02*
X198550000Y-59000000D01*
X196200000Y-63000000D02*
X195700000Y-63500000D01*
X195700000Y-63500000D02*
X195700000Y-62500000D01*
X195700000Y-62500000D02*
X196200000Y-63000000D01*
X196950000Y-70250000D02*
X202200000Y-70250000D01*
X202200000Y-70250000D02*
X202200000Y-64750000D01*
X202200000Y-64750000D02*
X198550000Y-64750000D01*
X196200000Y-68750000D02*
X195700000Y-69250000D01*
X195700000Y-69250000D02*
X195700000Y-68250000D01*
X195700000Y-68250000D02*
X196200000Y-68750000D01*
X180350000Y-68125000D02*
X181550000Y-68125000D01*
X181550000Y-69875000D02*
X180350000Y-69875000D01*
X180350000Y-63625000D02*
X181550000Y-63625000D01*
X181550000Y-65375000D02*
X180350000Y-65375000D01*
X196950000Y-53000000D02*
X202200000Y-53000000D01*
X202200000Y-53000000D02*
X202200000Y-47500000D01*
X202200000Y-47500000D02*
X198550000Y-47500000D01*
X196200000Y-51500000D02*
X195700000Y-52000000D01*
X195700000Y-52000000D02*
X195700000Y-51000000D01*
X195700000Y-51000000D02*
X196200000Y-51500000D01*
D14*
X188757143Y-56860714D02*
X188771429Y-56846429D01*
X188785714Y-56860714D01*
X188771429Y-56875000D01*
X188757143Y-56860714D01*
X188785714Y-56860714D01*
X188500000Y-56917857D02*
X188485714Y-56889286D01*
X188485714Y-56817857D01*
X188500000Y-56789286D01*
X188528571Y-56775000D01*
X188557143Y-56775000D01*
X188585714Y-56789286D01*
X188600000Y-56803571D01*
X188614286Y-56832143D01*
X188628571Y-56846429D01*
X188657143Y-56860714D01*
X188671429Y-56860714D01*
X188757143Y-56603571D02*
X188771429Y-56589286D01*
X188785714Y-56603571D01*
X188771429Y-56617857D01*
X188757143Y-56603571D01*
X188785714Y-56603571D01*
X188500000Y-56660714D02*
X188485714Y-56632143D01*
X188485714Y-56560714D01*
X188500000Y-56532143D01*
X188528571Y-56517857D01*
X188557143Y-56517857D01*
X188585714Y-56532143D01*
X188600000Y-56546428D01*
X188614286Y-56575000D01*
X188628571Y-56589286D01*
X188657143Y-56603571D01*
X188671429Y-56603571D01*
X188785714Y-56232143D02*
X188785714Y-56403571D01*
X188785714Y-56317857D02*
X188485714Y-56317857D01*
X188528571Y-56346428D01*
X188557143Y-56375000D01*
X188571429Y-56403571D01*
D11*
X179757143Y-56916666D02*
X179804762Y-56964285D01*
X179852381Y-57107142D01*
X179852381Y-57202380D01*
X179804762Y-57345238D01*
X179709524Y-57440476D01*
X179614286Y-57488095D01*
X179423810Y-57535714D01*
X179280952Y-57535714D01*
X179090476Y-57488095D01*
X178995238Y-57440476D01*
X178900000Y-57345238D01*
X178852381Y-57202380D01*
X178852381Y-57107142D01*
X178900000Y-56964285D01*
X178947619Y-56916666D01*
X179852381Y-55964285D02*
X179852381Y-56535714D01*
X179852381Y-56250000D02*
X178852381Y-56250000D01*
X178995238Y-56345238D01*
X179090476Y-56440476D01*
X179138095Y-56535714D01*
X192257143Y-57416666D02*
X192304762Y-57464285D01*
X192352381Y-57607142D01*
X192352381Y-57702380D01*
X192304762Y-57845238D01*
X192209524Y-57940476D01*
X192114286Y-57988095D01*
X191923810Y-58035714D01*
X191780952Y-58035714D01*
X191590476Y-57988095D01*
X191495238Y-57940476D01*
X191400000Y-57845238D01*
X191352381Y-57702380D01*
X191352381Y-57607142D01*
X191400000Y-57464285D01*
X191447619Y-57416666D01*
X191447619Y-57035714D02*
X191400000Y-56988095D01*
X191352381Y-56892857D01*
X191352381Y-56654761D01*
X191400000Y-56559523D01*
X191447619Y-56511904D01*
X191542857Y-56464285D01*
X191638095Y-56464285D01*
X191780952Y-56511904D01*
X192352381Y-57083333D01*
X192352381Y-56464285D01*
X182583334Y-62707143D02*
X182535715Y-62754762D01*
X182392858Y-62802381D01*
X182297620Y-62802381D01*
X182154762Y-62754762D01*
X182059524Y-62659524D01*
X182011905Y-62564286D01*
X181964286Y-62373810D01*
X181964286Y-62230952D01*
X182011905Y-62040476D01*
X182059524Y-61945238D01*
X182154762Y-61850000D01*
X182297620Y-61802381D01*
X182392858Y-61802381D01*
X182535715Y-61850000D01*
X182583334Y-61897619D01*
X182916667Y-61802381D02*
X183535715Y-61802381D01*
X183202381Y-62183333D01*
X183345239Y-62183333D01*
X183440477Y-62230952D01*
X183488096Y-62278571D01*
X183535715Y-62373810D01*
X183535715Y-62611905D01*
X183488096Y-62707143D01*
X183440477Y-62754762D01*
X183345239Y-62802381D01*
X183059524Y-62802381D01*
X182964286Y-62754762D01*
X182916667Y-62707143D01*
X182107143Y-55166666D02*
X182154762Y-55214285D01*
X182202381Y-55357142D01*
X182202381Y-55452380D01*
X182154762Y-55595238D01*
X182059524Y-55690476D01*
X181964286Y-55738095D01*
X181773810Y-55785714D01*
X181630952Y-55785714D01*
X181440476Y-55738095D01*
X181345238Y-55690476D01*
X181250000Y-55595238D01*
X181202381Y-55452380D01*
X181202381Y-55357142D01*
X181250000Y-55214285D01*
X181297619Y-55166666D01*
X181535714Y-54309523D02*
X182202381Y-54309523D01*
X181154762Y-54547619D02*
X181869048Y-54785714D01*
X181869048Y-54166666D01*
X197207143Y-66666666D02*
X197254762Y-66714285D01*
X197302381Y-66857142D01*
X197302381Y-66952380D01*
X197254762Y-67095238D01*
X197159524Y-67190476D01*
X197064286Y-67238095D01*
X196873810Y-67285714D01*
X196730952Y-67285714D01*
X196540476Y-67238095D01*
X196445238Y-67190476D01*
X196350000Y-67095238D01*
X196302381Y-66952380D01*
X196302381Y-66857142D01*
X196350000Y-66714285D01*
X196397619Y-66666666D01*
X196302381Y-65761904D02*
X196302381Y-66238095D01*
X196778571Y-66285714D01*
X196730952Y-66238095D01*
X196683333Y-66142857D01*
X196683333Y-65904761D01*
X196730952Y-65809523D01*
X196778571Y-65761904D01*
X196873810Y-65714285D01*
X197111905Y-65714285D01*
X197207143Y-65761904D01*
X197254762Y-65809523D01*
X197302381Y-65904761D01*
X197302381Y-66142857D01*
X197254762Y-66238095D01*
X197207143Y-66285714D01*
X189957143Y-66916666D02*
X190004762Y-66964285D01*
X190052381Y-67107142D01*
X190052381Y-67202380D01*
X190004762Y-67345238D01*
X189909524Y-67440476D01*
X189814286Y-67488095D01*
X189623810Y-67535714D01*
X189480952Y-67535714D01*
X189290476Y-67488095D01*
X189195238Y-67440476D01*
X189100000Y-67345238D01*
X189052381Y-67202380D01*
X189052381Y-67107142D01*
X189100000Y-66964285D01*
X189147619Y-66916666D01*
X189052381Y-66059523D02*
X189052381Y-66250000D01*
X189100000Y-66345238D01*
X189147619Y-66392857D01*
X189290476Y-66488095D01*
X189480952Y-66535714D01*
X189861905Y-66535714D01*
X189957143Y-66488095D01*
X190004762Y-66440476D01*
X190052381Y-66345238D01*
X190052381Y-66154761D01*
X190004762Y-66059523D01*
X189957143Y-66011904D01*
X189861905Y-65964285D01*
X189623810Y-65964285D01*
X189528571Y-66011904D01*
X189480952Y-66059523D01*
X189433333Y-66154761D01*
X189433333Y-66345238D01*
X189480952Y-66440476D01*
X189528571Y-66488095D01*
X189623810Y-66535714D01*
X198810925Y-40702381D02*
X198810925Y-39702381D01*
X199049020Y-39702381D01*
X199191878Y-39750000D01*
X199287116Y-39845238D01*
X199334735Y-39940476D01*
X199382354Y-40130952D01*
X199382354Y-40273810D01*
X199334735Y-40464286D01*
X199287116Y-40559524D01*
X199191878Y-40654762D01*
X199049020Y-40702381D01*
X198810925Y-40702381D01*
X200334735Y-40702381D02*
X199763306Y-40702381D01*
X200049020Y-40702381D02*
X200049020Y-39702381D01*
X199953782Y-39845238D01*
X199858544Y-39940476D01*
X199763306Y-39988095D01*
X182702381Y-52873095D02*
X181702381Y-52873095D01*
X181702381Y-52635000D01*
X181750000Y-52492142D01*
X181845238Y-52396904D01*
X181940476Y-52349285D01*
X182130952Y-52301666D01*
X182273810Y-52301666D01*
X182464286Y-52349285D01*
X182559524Y-52396904D01*
X182654762Y-52492142D01*
X182702381Y-52635000D01*
X182702381Y-52873095D01*
X181797619Y-51920714D02*
X181750000Y-51873095D01*
X181702381Y-51777857D01*
X181702381Y-51539761D01*
X181750000Y-51444523D01*
X181797619Y-51396904D01*
X181892857Y-51349285D01*
X181988095Y-51349285D01*
X182130952Y-51396904D01*
X182702381Y-51968333D01*
X182702381Y-51349285D01*
X186810925Y-62452381D02*
X186810925Y-61452381D01*
X187049020Y-61452381D01*
X187191878Y-61500000D01*
X187287116Y-61595238D01*
X187334735Y-61690476D01*
X187382354Y-61880952D01*
X187382354Y-62023810D01*
X187334735Y-62214286D01*
X187287116Y-62309524D01*
X187191878Y-62404762D01*
X187049020Y-62452381D01*
X186810925Y-62452381D01*
X187715687Y-61452381D02*
X188334735Y-61452381D01*
X188001401Y-61833333D01*
X188144259Y-61833333D01*
X188239497Y-61880952D01*
X188287116Y-61928571D01*
X188334735Y-62023810D01*
X188334735Y-62261905D01*
X188287116Y-62357143D01*
X188239497Y-62404762D01*
X188144259Y-62452381D01*
X187858544Y-62452381D01*
X187763306Y-62404762D01*
X187715687Y-62357143D01*
X180462885Y-69952381D02*
X180462885Y-68952381D01*
X180700980Y-68952381D01*
X180843838Y-69000000D01*
X180939076Y-69095238D01*
X180986695Y-69190476D01*
X181034314Y-69380952D01*
X181034314Y-69523810D01*
X180986695Y-69714286D01*
X180939076Y-69809524D01*
X180843838Y-69904762D01*
X180700980Y-69952381D01*
X180462885Y-69952381D01*
X181891457Y-69285714D02*
X181891457Y-69952381D01*
X181653361Y-68904762D02*
X181415266Y-69619048D01*
X182034314Y-69619048D01*
X180310925Y-76952381D02*
X180310925Y-75952381D01*
X180549020Y-75952381D01*
X180691878Y-76000000D01*
X180787116Y-76095238D01*
X180834735Y-76190476D01*
X180882354Y-76380952D01*
X180882354Y-76523810D01*
X180834735Y-76714286D01*
X180787116Y-76809524D01*
X180691878Y-76904762D01*
X180549020Y-76952381D01*
X180310925Y-76952381D01*
X181787116Y-75952381D02*
X181310925Y-75952381D01*
X181263306Y-76428571D01*
X181310925Y-76380952D01*
X181406163Y-76333333D01*
X181644259Y-76333333D01*
X181739497Y-76380952D01*
X181787116Y-76428571D01*
X181834735Y-76523810D01*
X181834735Y-76761905D01*
X181787116Y-76857143D01*
X181739497Y-76904762D01*
X181644259Y-76952381D01*
X181406163Y-76952381D01*
X181310925Y-76904762D01*
X181263306Y-76857143D01*
D15*
X193992116Y-48445238D02*
X193792116Y-48445238D01*
X193973069Y-48235714D02*
X193982592Y-48245238D01*
X193992116Y-48273809D01*
X193992116Y-48292857D01*
X193982592Y-48321429D01*
X193963545Y-48340476D01*
X193944497Y-48350000D01*
X193906402Y-48359524D01*
X193877830Y-48359524D01*
X193839735Y-48350000D01*
X193820688Y-48340476D01*
X193801640Y-48321429D01*
X193792116Y-48292857D01*
X193792116Y-48273809D01*
X193801640Y-48245238D01*
X193811164Y-48235714D01*
X193992116Y-48045238D02*
X193992116Y-48159524D01*
X193992116Y-48102381D02*
X193792116Y-48102381D01*
X193820688Y-48121429D01*
X193839735Y-48140476D01*
X193849259Y-48159524D01*
X193261596Y-49022856D02*
X193061596Y-49022856D01*
X193204453Y-48956189D01*
X193061596Y-48889523D01*
X193261596Y-48889523D01*
X193242549Y-48679999D02*
X193252072Y-48689523D01*
X193261596Y-48718094D01*
X193261596Y-48737142D01*
X193252072Y-48765714D01*
X193233025Y-48784761D01*
X193213977Y-48794285D01*
X193175882Y-48803809D01*
X193147310Y-48803809D01*
X193109215Y-48794285D01*
X193090168Y-48784761D01*
X193071120Y-48765714D01*
X193061596Y-48737142D01*
X193061596Y-48718094D01*
X193071120Y-48689523D01*
X193080644Y-48679999D01*
X193261596Y-48594285D02*
X193061596Y-48594285D01*
X193061596Y-48518094D01*
X193071120Y-48499047D01*
X193080644Y-48489523D01*
X193099691Y-48479999D01*
X193128263Y-48479999D01*
X193147310Y-48489523D01*
X193156834Y-48499047D01*
X193166358Y-48518094D01*
X193166358Y-48594285D01*
X193061596Y-48413333D02*
X193061596Y-48279999D01*
X193261596Y-48365714D01*
X193061596Y-48222857D02*
X193061596Y-48099047D01*
X193137787Y-48165714D01*
X193137787Y-48137142D01*
X193147310Y-48118095D01*
X193156834Y-48108571D01*
X193175882Y-48099047D01*
X193223501Y-48099047D01*
X193242549Y-48108571D01*
X193252072Y-48118095D01*
X193261596Y-48137142D01*
X193261596Y-48194285D01*
X193252072Y-48213333D01*
X193242549Y-48222857D01*
X193147310Y-47984762D02*
X193137787Y-48003809D01*
X193128263Y-48013333D01*
X193109215Y-48022857D01*
X193099691Y-48022857D01*
X193080644Y-48013333D01*
X193071120Y-48003809D01*
X193061596Y-47984762D01*
X193061596Y-47946666D01*
X193071120Y-47927619D01*
X193080644Y-47918095D01*
X193099691Y-47908571D01*
X193109215Y-47908571D01*
X193128263Y-47918095D01*
X193137787Y-47927619D01*
X193147310Y-47946666D01*
X193147310Y-47984762D01*
X193156834Y-48003809D01*
X193166358Y-48013333D01*
X193185406Y-48022857D01*
X193223501Y-48022857D01*
X193242549Y-48013333D01*
X193252072Y-48003809D01*
X193261596Y-47984762D01*
X193261596Y-47946666D01*
X193252072Y-47927619D01*
X193242549Y-47918095D01*
X193223501Y-47908571D01*
X193185406Y-47908571D01*
X193166358Y-47918095D01*
X193156834Y-47927619D01*
X193147310Y-47946666D01*
X193061596Y-47841905D02*
X193061596Y-47718095D01*
X193137787Y-47784762D01*
X193137787Y-47756190D01*
X193147310Y-47737143D01*
X193156834Y-47727619D01*
X193175882Y-47718095D01*
X193223501Y-47718095D01*
X193242549Y-47727619D01*
X193252072Y-47737143D01*
X193261596Y-47756190D01*
X193261596Y-47813333D01*
X193252072Y-47832381D01*
X193242549Y-47841905D01*
X193261596Y-47527619D02*
X193261596Y-47641905D01*
X193261596Y-47584762D02*
X193061596Y-47584762D01*
X193090168Y-47603810D01*
X193109215Y-47622857D01*
X193118739Y-47641905D01*
D16*
X183939678Y-41911048D02*
X183939678Y-41611328D01*
X184053857Y-41611328D01*
X184082402Y-41625600D01*
X184096674Y-41639872D01*
X184110946Y-41668417D01*
X184110946Y-41711234D01*
X184096674Y-41739779D01*
X184082402Y-41754051D01*
X184053857Y-41768324D01*
X183939678Y-41768324D01*
X184396394Y-41911048D02*
X184225126Y-41911048D01*
X184310760Y-41911048D02*
X184310760Y-41611328D01*
X184282215Y-41654145D01*
X184253670Y-41682690D01*
X184225126Y-41696962D01*
D17*
D16*
X183247468Y-43411328D02*
X183247468Y-43653958D01*
X183261740Y-43682503D01*
X183276013Y-43696775D01*
X183304557Y-43711048D01*
X183361647Y-43711048D01*
X183390192Y-43696775D01*
X183404464Y-43682503D01*
X183418736Y-43653958D01*
X183418736Y-43411328D01*
X183547188Y-43696775D02*
X183590005Y-43711048D01*
X183661367Y-43711048D01*
X183689911Y-43696775D01*
X183704184Y-43682503D01*
X183718456Y-43653958D01*
X183718456Y-43625413D01*
X183704184Y-43596869D01*
X183689911Y-43582596D01*
X183661367Y-43568324D01*
X183604277Y-43554051D01*
X183575732Y-43539779D01*
X183561460Y-43525507D01*
X183547188Y-43496962D01*
X183547188Y-43468417D01*
X183561460Y-43439872D01*
X183575732Y-43425600D01*
X183604277Y-43411328D01*
X183675639Y-43411328D01*
X183718456Y-43425600D01*
X183946815Y-43554051D02*
X183989632Y-43568324D01*
X184003904Y-43582596D01*
X184018176Y-43611141D01*
X184018176Y-43653958D01*
X184003904Y-43682503D01*
X183989632Y-43696775D01*
X183961087Y-43711048D01*
X183846908Y-43711048D01*
X183846908Y-43411328D01*
X183946815Y-43411328D01*
X183975359Y-43425600D01*
X183989632Y-43439872D01*
X184003904Y-43468417D01*
X184003904Y-43496962D01*
X183989632Y-43525507D01*
X183975359Y-43539779D01*
X183946815Y-43554051D01*
X183846908Y-43554051D01*
X184075266Y-43739592D02*
X184303624Y-43739592D01*
X184432075Y-43411328D02*
X184489165Y-43411328D01*
X184517710Y-43425600D01*
X184546254Y-43454145D01*
X184560527Y-43511234D01*
X184560527Y-43611141D01*
X184546254Y-43668230D01*
X184517710Y-43696775D01*
X184489165Y-43711048D01*
X184432075Y-43711048D01*
X184403531Y-43696775D01*
X184374986Y-43668230D01*
X184360714Y-43611141D01*
X184360714Y-43511234D01*
X184374986Y-43454145D01*
X184403531Y-43425600D01*
X184432075Y-43411328D01*
X184646161Y-43411328D02*
X184817429Y-43411328D01*
X184731795Y-43711048D02*
X184731795Y-43411328D01*
X185074332Y-43425600D02*
X185045787Y-43411328D01*
X185002970Y-43411328D01*
X184960153Y-43425600D01*
X184931608Y-43454145D01*
X184917336Y-43482690D01*
X184903064Y-43539779D01*
X184903064Y-43582596D01*
X184917336Y-43639686D01*
X184931608Y-43668230D01*
X184960153Y-43696775D01*
X185002970Y-43711048D01*
X185031515Y-43711048D01*
X185074332Y-43696775D01*
X185088604Y-43682503D01*
X185088604Y-43582596D01*
X185031515Y-43582596D01*
D17*
D18*
X187923809Y-54118766D02*
X187851237Y-54082480D01*
X187778666Y-54009909D01*
X187669809Y-53901051D01*
X187597237Y-53864766D01*
X187524666Y-53864766D01*
X187560951Y-54046194D02*
X187488380Y-54009909D01*
X187415809Y-53937337D01*
X187379523Y-53792194D01*
X187379523Y-53538194D01*
X187415809Y-53393051D01*
X187488380Y-53320480D01*
X187560951Y-53284194D01*
X187706094Y-53284194D01*
X187778666Y-53320480D01*
X187851237Y-53393051D01*
X187887523Y-53538194D01*
X187887523Y-53792194D01*
X187851237Y-53937337D01*
X187778666Y-54009909D01*
X187706094Y-54046194D01*
X187560951Y-54046194D01*
X188613237Y-54046194D02*
X188177809Y-54046194D01*
X188395523Y-54046194D02*
X188395523Y-53284194D01*
X188322952Y-53393051D01*
X188250380Y-53465623D01*
X188177809Y-53501909D01*
D19*
X188171338Y-53731778D02*
X188147510Y-53779433D01*
X188099855Y-53827089D01*
X188028372Y-53898572D01*
X188004544Y-53946227D01*
X188004544Y-53993882D01*
X188123682Y-53970054D02*
X188099855Y-54017710D01*
X188052200Y-54065365D01*
X187956889Y-54089193D01*
X187790096Y-54089193D01*
X187694785Y-54065365D01*
X187647130Y-54017710D01*
X187623302Y-53970054D01*
X187623302Y-53874744D01*
X187647130Y-53827089D01*
X187694785Y-53779433D01*
X187790096Y-53755606D01*
X187956889Y-53755606D01*
X188052200Y-53779433D01*
X188099855Y-53827089D01*
X188123682Y-53874744D01*
X188123682Y-53970054D01*
X188171338Y-53660295D02*
X188171338Y-53279053D01*
X188123682Y-53159915D02*
X187623302Y-53159915D01*
X187623302Y-52969294D01*
X187647130Y-52921639D01*
X187670958Y-52897811D01*
X187718613Y-52873983D01*
X187790096Y-52873983D01*
X187837751Y-52897811D01*
X187861579Y-52921639D01*
X187885406Y-52969294D01*
X187885406Y-53159915D01*
X188123682Y-52659535D02*
X187623302Y-52659535D01*
X187980717Y-52492742D01*
X187623302Y-52325948D01*
X188123682Y-52325948D01*
X187623302Y-51992361D02*
X187623302Y-51897051D01*
X187647130Y-51849396D01*
X187694785Y-51801740D01*
X187790096Y-51777913D01*
X187956889Y-51777913D01*
X188052200Y-51801740D01*
X188099855Y-51849396D01*
X188123682Y-51897051D01*
X188123682Y-51992361D01*
X188099855Y-52040017D01*
X188052200Y-52087672D01*
X187956889Y-52111500D01*
X187790096Y-52111500D01*
X187694785Y-52087672D01*
X187647130Y-52040017D01*
X187623302Y-51992361D01*
X188099855Y-51587292D02*
X188123682Y-51515809D01*
X188123682Y-51396671D01*
X188099855Y-51349015D01*
X188076027Y-51325188D01*
X188028372Y-51301360D01*
X187980717Y-51301360D01*
X187933061Y-51325188D01*
X187909234Y-51349015D01*
X187885406Y-51396671D01*
X187861579Y-51491981D01*
X187837751Y-51539636D01*
X187813923Y-51563464D01*
X187766268Y-51587292D01*
X187718613Y-51587292D01*
X187670958Y-51563464D01*
X187647130Y-51539636D01*
X187623302Y-51491981D01*
X187623302Y-51372843D01*
X187647130Y-51301360D01*
X188171338Y-51206050D02*
X188171338Y-50824808D01*
X187647130Y-50443566D02*
X187623302Y-50491221D01*
X187623302Y-50562704D01*
X187647130Y-50634187D01*
X187694785Y-50681842D01*
X187742440Y-50705670D01*
X187837751Y-50729498D01*
X187909234Y-50729498D01*
X188004544Y-50705670D01*
X188052200Y-50681842D01*
X188099855Y-50634187D01*
X188123682Y-50562704D01*
X188123682Y-50515049D01*
X188099855Y-50443566D01*
X188076027Y-50419738D01*
X187909234Y-50419738D01*
X187909234Y-50515049D01*
X188099855Y-50229118D02*
X188123682Y-50157635D01*
X188123682Y-50038497D01*
X188099855Y-49990841D01*
X188076027Y-49967014D01*
X188028372Y-49943186D01*
X187980717Y-49943186D01*
X187933061Y-49967014D01*
X187909234Y-49990841D01*
X187885406Y-50038497D01*
X187861579Y-50133807D01*
X187837751Y-50181462D01*
X187813923Y-50205290D01*
X187766268Y-50229118D01*
X187718613Y-50229118D01*
X187670958Y-50205290D01*
X187647130Y-50181462D01*
X187623302Y-50133807D01*
X187623302Y-50014669D01*
X187647130Y-49943186D01*
X188123682Y-49728738D02*
X187623302Y-49728738D01*
X187623302Y-49609600D01*
X187647130Y-49538117D01*
X187694785Y-49490462D01*
X187742440Y-49466634D01*
X187837751Y-49442806D01*
X187909234Y-49442806D01*
X188004544Y-49466634D01*
X188052200Y-49490462D01*
X188099855Y-49538117D01*
X188123682Y-49609600D01*
X188123682Y-49728738D01*
D11*
X182602381Y-56866666D02*
X182126190Y-57200000D01*
X182602381Y-57438095D02*
X181602381Y-57438095D01*
X181602381Y-57057142D01*
X181650000Y-56961904D01*
X181697619Y-56914285D01*
X181792857Y-56866666D01*
X181935714Y-56866666D01*
X182030952Y-56914285D01*
X182078571Y-56961904D01*
X182126190Y-57057142D01*
X182126190Y-57438095D01*
X182602381Y-55914285D02*
X182602381Y-56485714D01*
X182602381Y-56200000D02*
X181602381Y-56200000D01*
X181745238Y-56295238D01*
X181840476Y-56390476D01*
X181888095Y-56485714D01*
X199133334Y-42852381D02*
X198800000Y-42376190D01*
X198561905Y-42852381D02*
X198561905Y-41852381D01*
X198942858Y-41852381D01*
X199038096Y-41900000D01*
X199085715Y-41947619D01*
X199133334Y-42042857D01*
X199133334Y-42185714D01*
X199085715Y-42280952D01*
X199038096Y-42328571D01*
X198942858Y-42376190D01*
X198561905Y-42376190D01*
X199514286Y-41947619D02*
X199561905Y-41900000D01*
X199657143Y-41852381D01*
X199895239Y-41852381D01*
X199990477Y-41900000D01*
X200038096Y-41947619D01*
X200085715Y-42042857D01*
X200085715Y-42138095D01*
X200038096Y-42280952D01*
X199466667Y-42852381D01*
X200085715Y-42852381D01*
X194883334Y-50852381D02*
X194550000Y-50376190D01*
X194311905Y-50852381D02*
X194311905Y-49852381D01*
X194692858Y-49852381D01*
X194788096Y-49900000D01*
X194835715Y-49947619D01*
X194883334Y-50042857D01*
X194883334Y-50185714D01*
X194835715Y-50280952D01*
X194788096Y-50328571D01*
X194692858Y-50376190D01*
X194311905Y-50376190D01*
X195216667Y-49852381D02*
X195835715Y-49852381D01*
X195502381Y-50233333D01*
X195645239Y-50233333D01*
X195740477Y-50280952D01*
X195788096Y-50328571D01*
X195835715Y-50423810D01*
X195835715Y-50661905D01*
X195788096Y-50757143D01*
X195740477Y-50804762D01*
X195645239Y-50852381D01*
X195359524Y-50852381D01*
X195264286Y-50804762D01*
X195216667Y-50757143D01*
X191383334Y-58602381D02*
X191050000Y-58126190D01*
X190811905Y-58602381D02*
X190811905Y-57602381D01*
X191192858Y-57602381D01*
X191288096Y-57650000D01*
X191335715Y-57697619D01*
X191383334Y-57792857D01*
X191383334Y-57935714D01*
X191335715Y-58030952D01*
X191288096Y-58078571D01*
X191192858Y-58126190D01*
X190811905Y-58126190D01*
X192240477Y-57935714D02*
X192240477Y-58602381D01*
X192002381Y-57554762D02*
X191764286Y-58269048D01*
X192383334Y-58269048D01*
X191283334Y-64102381D02*
X190950000Y-63626190D01*
X190711905Y-64102381D02*
X190711905Y-63102381D01*
X191092858Y-63102381D01*
X191188096Y-63150000D01*
X191235715Y-63197619D01*
X191283334Y-63292857D01*
X191283334Y-63435714D01*
X191235715Y-63530952D01*
X191188096Y-63578571D01*
X191092858Y-63626190D01*
X190711905Y-63626190D01*
X192188096Y-63102381D02*
X191711905Y-63102381D01*
X191664286Y-63578571D01*
X191711905Y-63530952D01*
X191807143Y-63483333D01*
X192045239Y-63483333D01*
X192140477Y-63530952D01*
X192188096Y-63578571D01*
X192235715Y-63673810D01*
X192235715Y-63911905D01*
X192188096Y-64007143D01*
X192140477Y-64054762D01*
X192045239Y-64102381D01*
X191807143Y-64102381D01*
X191711905Y-64054762D01*
X191664286Y-64007143D01*
X180783334Y-76052381D02*
X180450000Y-75576190D01*
X180211905Y-76052381D02*
X180211905Y-75052381D01*
X180592858Y-75052381D01*
X180688096Y-75100000D01*
X180735715Y-75147619D01*
X180783334Y-75242857D01*
X180783334Y-75385714D01*
X180735715Y-75480952D01*
X180688096Y-75528571D01*
X180592858Y-75576190D01*
X180211905Y-75576190D01*
X181640477Y-75052381D02*
X181450000Y-75052381D01*
X181354762Y-75100000D01*
X181307143Y-75147619D01*
X181211905Y-75290476D01*
X181164286Y-75480952D01*
X181164286Y-75861905D01*
X181211905Y-75957143D01*
X181259524Y-76004762D01*
X181354762Y-76052381D01*
X181545239Y-76052381D01*
X181640477Y-76004762D01*
X181688096Y-75957143D01*
X181735715Y-75861905D01*
X181735715Y-75623810D01*
X181688096Y-75528571D01*
X181640477Y-75480952D01*
X181545239Y-75433333D01*
X181354762Y-75433333D01*
X181259524Y-75480952D01*
X181211905Y-75528571D01*
X181164286Y-75623810D01*
X180783334Y-78552381D02*
X180450000Y-78076190D01*
X180211905Y-78552381D02*
X180211905Y-77552381D01*
X180592858Y-77552381D01*
X180688096Y-77600000D01*
X180735715Y-77647619D01*
X180783334Y-77742857D01*
X180783334Y-77885714D01*
X180735715Y-77980952D01*
X180688096Y-78028571D01*
X180592858Y-78076190D01*
X180211905Y-78076190D01*
X181116667Y-77552381D02*
X181783334Y-77552381D01*
X181354762Y-78552381D01*
D20*
X190015309Y-73661143D02*
X191249023Y-73661143D01*
X191394166Y-73588571D01*
X191466737Y-73516000D01*
X191539309Y-73370857D01*
X191539309Y-73080571D01*
X191466737Y-72935429D01*
X191394166Y-72862857D01*
X191249023Y-72790286D01*
X190015309Y-72790286D01*
X191539309Y-71266286D02*
X191539309Y-72137143D01*
X191539309Y-71701715D02*
X190015309Y-71701715D01*
X190233023Y-71846858D01*
X190378166Y-71992000D01*
X190450737Y-72137143D01*
X191539309Y-84761559D02*
X190015309Y-84761559D01*
X191103880Y-84253559D01*
X190015309Y-83745559D01*
X191539309Y-83745559D01*
X191466737Y-83092416D02*
X191539309Y-82874702D01*
X191539309Y-82511845D01*
X191466737Y-82366702D01*
X191394166Y-82294131D01*
X191249023Y-82221559D01*
X191103880Y-82221559D01*
X190958737Y-82294131D01*
X190886166Y-82366702D01*
X190813594Y-82511845D01*
X190741023Y-82802131D01*
X190668451Y-82947273D01*
X190595880Y-83019845D01*
X190450737Y-83092416D01*
X190305594Y-83092416D01*
X190160451Y-83019845D01*
X190087880Y-82947273D01*
X190015309Y-82802131D01*
X190015309Y-82439273D01*
X190087880Y-82221559D01*
X191539309Y-81568416D02*
X190015309Y-81568416D01*
X190015309Y-80987844D01*
X190087880Y-80842702D01*
X190160451Y-80770130D01*
X190305594Y-80697559D01*
X190523309Y-80697559D01*
X190668451Y-80770130D01*
X190741023Y-80842702D01*
X190813594Y-80987844D01*
X190813594Y-81568416D01*
X190523309Y-79391273D02*
X191539309Y-79391273D01*
X189942737Y-79754130D02*
X191031309Y-80116987D01*
X191031309Y-79173559D01*
X190015309Y-78738130D02*
X190015309Y-77794701D01*
X190595880Y-78302701D01*
X190595880Y-78084987D01*
X190668451Y-77939844D01*
X190741023Y-77867273D01*
X190886166Y-77794701D01*
X191249023Y-77794701D01*
X191394166Y-77867273D01*
X191466737Y-77939844D01*
X191539309Y-78084987D01*
X191539309Y-78520415D01*
X191466737Y-78665558D01*
X191394166Y-78738130D01*
X190015309Y-76851272D02*
X190015309Y-76706129D01*
X190087880Y-76560986D01*
X190160451Y-76488415D01*
X190305594Y-76415844D01*
X190595880Y-76343272D01*
X190958737Y-76343272D01*
X191249023Y-76415844D01*
X191394166Y-76488415D01*
X191466737Y-76560986D01*
X191539309Y-76706129D01*
X191539309Y-76851272D01*
X191466737Y-76996415D01*
X191394166Y-77068986D01*
X191249023Y-77141558D01*
X190958737Y-77214129D01*
X190595880Y-77214129D01*
X190305594Y-77141558D01*
X190160451Y-77068986D01*
X190087880Y-76996415D01*
X190015309Y-76851272D01*
X190087880Y-74891843D02*
X190015309Y-75036986D01*
X190015309Y-75254700D01*
X190087880Y-75472415D01*
X190233023Y-75617557D01*
X190378166Y-75690129D01*
X190668451Y-75762700D01*
X190886166Y-75762700D01*
X191176451Y-75690129D01*
X191321594Y-75617557D01*
X191466737Y-75472415D01*
X191539309Y-75254700D01*
X191539309Y-75109557D01*
X191466737Y-74891843D01*
X191394166Y-74819272D01*
X190886166Y-74819272D01*
X190886166Y-75109557D01*
X190160451Y-74238700D02*
X190087880Y-74166129D01*
X190015309Y-74020986D01*
X190015309Y-73658129D01*
X190087880Y-73512986D01*
X190160451Y-73440415D01*
X190305594Y-73367843D01*
X190450737Y-73367843D01*
X190668451Y-73440415D01*
X191539309Y-74311272D01*
X191539309Y-73367843D01*
X190015309Y-71988986D02*
X190015309Y-72714700D01*
X190741023Y-72787271D01*
X190668451Y-72714700D01*
X190595880Y-72569557D01*
X190595880Y-72206700D01*
X190668451Y-72061557D01*
X190741023Y-71988986D01*
X190886166Y-71916414D01*
X191249023Y-71916414D01*
X191394166Y-71988986D01*
X191466737Y-72061557D01*
X191539309Y-72206700D01*
X191539309Y-72569557D01*
X191466737Y-72714700D01*
X191394166Y-72787271D01*
X190015309Y-70537557D02*
X190015309Y-71263271D01*
X190741023Y-71335842D01*
X190668451Y-71263271D01*
X190595880Y-71118128D01*
X190595880Y-70755271D01*
X190668451Y-70610128D01*
X190741023Y-70537557D01*
X190886166Y-70464985D01*
X191249023Y-70464985D01*
X191394166Y-70537557D01*
X191466737Y-70610128D01*
X191539309Y-70755271D01*
X191539309Y-71118128D01*
X191466737Y-71263271D01*
X191394166Y-71335842D01*
X190015309Y-69956985D02*
X190015309Y-69013556D01*
X190595880Y-69521556D01*
X190595880Y-69303842D01*
X190668451Y-69158699D01*
X190741023Y-69086128D01*
X190886166Y-69013556D01*
X191249023Y-69013556D01*
X191394166Y-69086128D01*
X191466737Y-69158699D01*
X191539309Y-69303842D01*
X191539309Y-69739270D01*
X191466737Y-69884413D01*
X191394166Y-69956985D01*
X191539309Y-68360413D02*
X190015309Y-68360413D01*
X191539309Y-67634699D02*
X190015309Y-67634699D01*
X190015309Y-67054127D01*
X190087880Y-66908985D01*
X190160451Y-66836413D01*
X190305594Y-66763842D01*
X190523309Y-66763842D01*
X190668451Y-66836413D01*
X190741023Y-66908985D01*
X190813594Y-67054127D01*
X190813594Y-67634699D01*
X190015309Y-66255842D02*
X191539309Y-65892985D01*
X190450737Y-65602699D01*
X191539309Y-65312413D01*
X190015309Y-64949556D01*
X190160451Y-64441556D02*
X190087880Y-64368985D01*
X190015309Y-64223842D01*
X190015309Y-63860985D01*
X190087880Y-63715842D01*
X190160451Y-63643271D01*
X190305594Y-63570699D01*
X190450737Y-63570699D01*
X190668451Y-63643271D01*
X191539309Y-64514128D01*
X191539309Y-63570699D01*
X190015309Y-62627270D02*
X190015309Y-62482127D01*
X190087880Y-62336984D01*
X190160451Y-62264413D01*
X190305594Y-62191842D01*
X190595880Y-62119270D01*
X190958737Y-62119270D01*
X191249023Y-62191842D01*
X191394166Y-62264413D01*
X191466737Y-62336984D01*
X191539309Y-62482127D01*
X191539309Y-62627270D01*
X191466737Y-62772413D01*
X191394166Y-62844984D01*
X191249023Y-62917556D01*
X190958737Y-62990127D01*
X190595880Y-62990127D01*
X190305594Y-62917556D01*
X190160451Y-62844984D01*
X190087880Y-62772413D01*
X190015309Y-62627270D01*
D11*
X180511905Y-65452381D02*
X180511905Y-64452381D01*
X180750000Y-64452381D01*
X180892858Y-64500000D01*
X180988096Y-64595238D01*
X181035715Y-64690476D01*
X181083334Y-64880952D01*
X181083334Y-65023810D01*
X181035715Y-65214286D01*
X180988096Y-65309524D01*
X180892858Y-65404762D01*
X180750000Y-65452381D01*
X180511905Y-65452381D01*
X181940477Y-64452381D02*
X181750000Y-64452381D01*
X181654762Y-64500000D01*
X181607143Y-64547619D01*
X181511905Y-64690476D01*
X181464286Y-64880952D01*
X181464286Y-65261905D01*
X181511905Y-65357143D01*
X181559524Y-65404762D01*
X181654762Y-65452381D01*
X181845239Y-65452381D01*
X181940477Y-65404762D01*
X181988096Y-65357143D01*
X182035715Y-65261905D01*
X182035715Y-65023810D01*
X181988096Y-64928571D01*
X181940477Y-64880952D01*
X181845239Y-64833333D01*
X181654762Y-64833333D01*
X181559524Y-64880952D01*
X181511905Y-64928571D01*
X181464286Y-65023810D01*
X180560925Y-61202381D02*
X180560925Y-60202381D01*
X180799020Y-60202381D01*
X180941878Y-60250000D01*
X181037116Y-60345238D01*
X181084735Y-60440476D01*
X181132354Y-60630952D01*
X181132354Y-60773810D01*
X181084735Y-60964286D01*
X181037116Y-61059524D01*
X180941878Y-61154762D01*
X180799020Y-61202381D01*
X180560925Y-61202381D01*
X181465687Y-60202381D02*
X182132354Y-60202381D01*
X181703782Y-61202381D01*
X195952381Y-56738095D02*
X194952381Y-56738095D01*
X194952381Y-56357142D01*
X195000000Y-56261904D01*
X195047619Y-56214285D01*
X195142857Y-56166666D01*
X195285714Y-56166666D01*
X195380952Y-56214285D01*
X195428571Y-56261904D01*
X195476190Y-56357142D01*
X195476190Y-56738095D01*
X195285714Y-55309523D02*
X195952381Y-55309523D01*
X194904762Y-55547619D02*
X195619048Y-55785714D01*
X195619048Y-55166666D01*
X195952381Y-75863095D02*
X194952381Y-75863095D01*
X194952381Y-75482142D01*
X195000000Y-75386904D01*
X195047619Y-75339285D01*
X195142857Y-75291666D01*
X195285714Y-75291666D01*
X195380952Y-75339285D01*
X195428571Y-75386904D01*
X195476190Y-75482142D01*
X195476190Y-75863095D01*
X194952381Y-74386904D02*
X194952381Y-74863095D01*
X195428571Y-74910714D01*
X195380952Y-74863095D01*
X195333333Y-74767857D01*
X195333333Y-74529761D01*
X195380952Y-74434523D01*
X195428571Y-74386904D01*
X195523810Y-74339285D01*
X195761905Y-74339285D01*
X195857143Y-74386904D01*
X195904762Y-74434523D01*
X195952381Y-74529761D01*
X195952381Y-74767857D01*
X195904762Y-74863095D01*
X195857143Y-74910714D01*
X195952381Y-62488095D02*
X194952381Y-62488095D01*
X194952381Y-62107142D01*
X195000000Y-62011904D01*
X195047619Y-61964285D01*
X195142857Y-61916666D01*
X195285714Y-61916666D01*
X195380952Y-61964285D01*
X195428571Y-62011904D01*
X195476190Y-62107142D01*
X195476190Y-62488095D01*
X194952381Y-61059523D02*
X194952381Y-61250000D01*
X195000000Y-61345238D01*
X195047619Y-61392857D01*
X195190476Y-61488095D01*
X195380952Y-61535714D01*
X195761905Y-61535714D01*
X195857143Y-61488095D01*
X195904762Y-61440476D01*
X195952381Y-61345238D01*
X195952381Y-61154761D01*
X195904762Y-61059523D01*
X195857143Y-61011904D01*
X195761905Y-60964285D01*
X195523810Y-60964285D01*
X195428571Y-61011904D01*
X195380952Y-61059523D01*
X195333333Y-61154761D01*
X195333333Y-61345238D01*
X195380952Y-61440476D01*
X195428571Y-61488095D01*
X195523810Y-61535714D01*
X195952381Y-68238095D02*
X194952381Y-68238095D01*
X194952381Y-67857142D01*
X195000000Y-67761904D01*
X195047619Y-67714285D01*
X195142857Y-67666666D01*
X195285714Y-67666666D01*
X195380952Y-67714285D01*
X195428571Y-67761904D01*
X195476190Y-67857142D01*
X195476190Y-68238095D01*
X194952381Y-67333333D02*
X194952381Y-66666666D01*
X195952381Y-67095238D01*
X180307143Y-71552381D02*
X179973809Y-71076190D01*
X179735714Y-71552381D02*
X179735714Y-70552381D01*
X180116667Y-70552381D01*
X180211905Y-70600000D01*
X180259524Y-70647619D01*
X180307143Y-70742857D01*
X180307143Y-70885714D01*
X180259524Y-70980952D01*
X180211905Y-71028571D01*
X180116667Y-71076190D01*
X179735714Y-71076190D01*
X181259524Y-71552381D02*
X180688095Y-71552381D01*
X180973809Y-71552381D02*
X180973809Y-70552381D01*
X180878571Y-70695238D01*
X180783333Y-70790476D01*
X180688095Y-70838095D01*
X181640476Y-70647619D02*
X181688095Y-70600000D01*
X181783333Y-70552381D01*
X182021429Y-70552381D01*
X182116667Y-70600000D01*
X182164286Y-70647619D01*
X182211905Y-70742857D01*
X182211905Y-70838095D01*
X182164286Y-70980952D01*
X181592857Y-71552381D01*
X182211905Y-71552381D01*
X180307143Y-67052381D02*
X179973809Y-66576190D01*
X179735714Y-67052381D02*
X179735714Y-66052381D01*
X180116667Y-66052381D01*
X180211905Y-66100000D01*
X180259524Y-66147619D01*
X180307143Y-66242857D01*
X180307143Y-66385714D01*
X180259524Y-66480952D01*
X180211905Y-66528571D01*
X180116667Y-66576190D01*
X179735714Y-66576190D01*
X181259524Y-67052381D02*
X180688095Y-67052381D01*
X180973809Y-67052381D02*
X180973809Y-66052381D01*
X180878571Y-66195238D01*
X180783333Y-66290476D01*
X180688095Y-66338095D01*
X181592857Y-66052381D02*
X182211905Y-66052381D01*
X181878571Y-66433333D01*
X182021429Y-66433333D01*
X182116667Y-66480952D01*
X182164286Y-66528571D01*
X182211905Y-66623810D01*
X182211905Y-66861905D01*
X182164286Y-66957143D01*
X182116667Y-67004762D01*
X182021429Y-67052381D01*
X181735714Y-67052381D01*
X181640476Y-67004762D01*
X181592857Y-66957143D01*
X195952381Y-50988095D02*
X194952381Y-50988095D01*
X194952381Y-50607142D01*
X195000000Y-50511904D01*
X195047619Y-50464285D01*
X195142857Y-50416666D01*
X195285714Y-50416666D01*
X195380952Y-50464285D01*
X195428571Y-50511904D01*
X195476190Y-50607142D01*
X195476190Y-50988095D01*
X195047619Y-50035714D02*
X195000000Y-49988095D01*
X194952381Y-49892857D01*
X194952381Y-49654761D01*
X195000000Y-49559523D01*
X195047619Y-49511904D01*
X195142857Y-49464285D01*
X195238095Y-49464285D01*
X195380952Y-49511904D01*
X195952381Y-50083333D01*
X195952381Y-49464285D01*
M02*
