%TF.GenerationSoftware,KiCad,Pcbnew,4.0.2-stable*%
%TF.CreationDate,2016-06-26T16:54:10-05:00*%
%TF.ProjectId,knee,6B6E65652E6B696361645F7063620000,rev?*%
%TF.FileFunction,Copper,L2,Bot,Signal*%
%FSLAX46Y46*%
G04 Gerber Fmt 4.6, Leading zero omitted, Abs format (unit mm)*
G04 Created by KiCad (PCBNEW 4.0.2-stable) date 6/26/2016 4:54:10 PM*
%MOMM*%
G01*
G04 APERTURE LIST*
%ADD10C,0.100000*%
%ADD11C,0.909320*%
%ADD12R,0.700000X1.300000*%
%ADD13R,1.000000X1.250000*%
%ADD14R,0.762000X0.508000*%
%ADD15R,0.800000X0.800000*%
%ADD16O,0.800000X0.800000*%
%ADD17R,1.300000X0.700000*%
%ADD18R,1.699260X1.198880*%
%ADD19R,1.198880X1.597660*%
%ADD20R,1.198880X1.699260*%
%ADD21C,0.600000*%
%ADD22C,0.350000*%
%ADD23C,0.250000*%
%ADD24C,0.254000*%
G04 APERTURE END LIST*
D10*
D11*
X186449640Y-44750640D03*
X182050360Y-44750640D03*
D12*
X196400000Y-42750000D03*
X194500000Y-42750000D03*
X192500000Y-42750000D03*
X190600000Y-42750000D03*
D13*
X183000000Y-42000000D03*
X185000000Y-42000000D03*
D14*
X200500000Y-61500000D03*
X200500000Y-62211200D03*
X200500000Y-60788800D03*
X200500000Y-67788800D03*
X200500000Y-67077600D03*
X200500000Y-68500000D03*
D15*
X197750000Y-57250000D03*
D16*
X197750000Y-56000000D03*
X197750000Y-54750000D03*
D15*
X197750000Y-78250000D03*
D16*
X197750000Y-77000000D03*
X197750000Y-75750000D03*
X197750000Y-74500000D03*
X197750000Y-73250000D03*
X197750000Y-72000000D03*
D15*
X197750000Y-63000000D03*
D16*
X197750000Y-61750000D03*
X197750000Y-60500000D03*
D15*
X197750000Y-68750000D03*
D16*
X197750000Y-67500000D03*
X197750000Y-66250000D03*
D12*
X183350000Y-47500000D03*
X185250000Y-47500000D03*
D17*
X200250000Y-73000000D03*
X200250000Y-74900000D03*
D18*
X180000000Y-57001300D03*
X180000000Y-55500160D03*
X180000000Y-54001560D03*
X180000000Y-58499900D03*
X180000000Y-60001040D03*
X180000000Y-61499640D03*
X180000000Y-63000780D03*
X180000000Y-64499380D03*
X180000000Y-66000520D03*
X180000000Y-67501660D03*
X180000000Y-69000260D03*
X180000000Y-70501400D03*
X180000000Y-72000000D03*
D19*
X181249680Y-52304840D03*
D20*
X182753360Y-52350560D03*
X184251960Y-52350560D03*
X185750560Y-52350560D03*
X187249160Y-52350560D03*
X188747760Y-52350560D03*
X190246360Y-52350560D03*
D19*
X191744960Y-52302300D03*
D18*
X192999720Y-54001560D03*
X192999720Y-55500160D03*
X192999720Y-57003840D03*
X192999720Y-58499900D03*
X192999720Y-60001040D03*
X192999720Y-61499640D03*
X192999720Y-63000780D03*
X192999720Y-64499380D03*
X192999720Y-66000520D03*
X192999720Y-67501660D03*
X192999720Y-69000260D03*
X192999720Y-70501400D03*
X192999720Y-72000000D03*
D15*
X197750000Y-51500000D03*
D16*
X197750000Y-50250000D03*
X197750000Y-49000000D03*
D21*
X184500000Y-62750000D03*
X196250000Y-76500000D03*
X189250000Y-65000000D03*
X195624980Y-44967045D03*
X196625020Y-66624980D03*
X196625020Y-62967045D03*
X200250000Y-74000000D03*
X200250000Y-76500000D03*
X199250000Y-69750000D03*
X183000000Y-75500000D03*
X191500000Y-73250000D03*
X184675020Y-59000000D03*
X182750000Y-56000000D03*
X193500000Y-44750000D03*
X198500000Y-65250000D03*
X185500000Y-73254749D03*
X190000000Y-73250000D03*
X196400000Y-42750000D03*
X184000000Y-72000000D03*
X183750000Y-73000000D03*
X199575033Y-79375030D03*
X194250000Y-78000000D03*
X200227590Y-77477032D03*
X195500000Y-78250000D03*
X189500000Y-69324980D03*
X197436326Y-64624980D03*
X183250000Y-69750000D03*
X195220483Y-61440965D03*
X198000000Y-59500000D03*
X195750000Y-58000000D03*
X198250000Y-58500000D03*
X195649702Y-70874971D03*
X197925051Y-70750000D03*
X195750000Y-74750000D03*
X185250000Y-67500000D03*
D22*
X197184315Y-61750000D02*
X197750000Y-61750000D01*
X196843063Y-61750000D02*
X197184315Y-61750000D01*
X196250000Y-76500000D02*
X196974999Y-75775001D01*
X196501038Y-67500000D02*
X195950019Y-66948981D01*
X195950019Y-62643044D02*
X196843063Y-61750000D01*
X195950019Y-66948981D02*
X195950019Y-62643044D01*
X196974999Y-75775001D02*
X196974999Y-67709316D01*
X197184315Y-67500000D02*
X197750000Y-67500000D01*
X197750000Y-67500000D02*
X196501038Y-67500000D01*
X196974999Y-67709316D02*
X197184315Y-67500000D01*
X184000000Y-58300530D02*
X184000000Y-62250000D01*
X184000000Y-62250000D02*
X184500000Y-62750000D01*
X180000000Y-55500160D02*
X181199630Y-55500160D01*
X181199630Y-55500160D02*
X184000000Y-58300530D01*
D23*
X179464528Y-55500160D02*
X180000000Y-55500160D01*
X178825369Y-54861001D02*
X179464528Y-55500160D01*
X178825369Y-53142119D02*
X178825369Y-54861001D01*
X179200011Y-52767477D02*
X178825369Y-53142119D01*
X179200011Y-52371237D02*
X179200011Y-52767477D01*
X185250000Y-47800000D02*
X182300000Y-50750000D01*
X180821248Y-50750000D02*
X179200011Y-52371237D01*
X182300000Y-50750000D02*
X180821248Y-50750000D01*
X185250000Y-47500000D02*
X185250000Y-47800000D01*
X197750000Y-67500000D02*
X198172400Y-67077600D01*
X198172400Y-67077600D02*
X200500000Y-67077600D01*
D22*
X197750000Y-56000000D02*
X196974999Y-55224999D01*
X196974999Y-55224999D02*
X196974999Y-53750003D01*
X196974999Y-53750003D02*
X198525001Y-52200001D01*
X198525001Y-52200001D02*
X198525001Y-50459316D01*
X198525001Y-50459316D02*
X198315685Y-50250000D01*
X198315685Y-50250000D02*
X197750000Y-50250000D01*
X197750000Y-61750000D02*
X196974999Y-60974999D01*
X196974999Y-60974999D02*
X196974999Y-56209316D01*
X196974999Y-56209316D02*
X197184315Y-56000000D01*
X197184315Y-56000000D02*
X197750000Y-56000000D01*
X190600000Y-42750000D02*
X190600000Y-43750000D01*
X190600000Y-43750000D02*
X191220801Y-44370801D01*
X191220801Y-44370801D02*
X191220801Y-63029199D01*
X191220801Y-63029199D02*
X189250000Y-65000000D01*
D23*
X195407935Y-44750000D02*
X195624980Y-44967045D01*
X193500000Y-44750000D02*
X195407935Y-44750000D01*
D22*
X196625020Y-66624980D02*
X196625020Y-66200716D01*
X196625020Y-66200716D02*
X196625020Y-62967045D01*
X200250000Y-74000000D02*
X200250000Y-74900000D01*
X197750000Y-78250000D02*
X198500000Y-78250000D01*
X198500000Y-78250000D02*
X200250000Y-76500000D01*
X199250000Y-69750000D02*
X198950001Y-70049999D01*
X198950001Y-70049999D02*
X198950001Y-73900001D01*
X198950001Y-73900001D02*
X199950000Y-74900000D01*
X199950000Y-74900000D02*
X200250000Y-74900000D01*
X191200001Y-75299999D02*
X191000000Y-75500000D01*
X191000000Y-75500000D02*
X183000000Y-75500000D01*
X191500000Y-73250000D02*
X191200001Y-73549999D01*
X191200001Y-73549999D02*
X191200001Y-75299999D01*
D23*
X182750000Y-56000000D02*
X184675020Y-57925020D01*
X184675020Y-58575736D02*
X184675020Y-59000000D01*
X184675020Y-57925020D02*
X184675020Y-58575736D01*
X190600000Y-42750000D02*
X190600000Y-43050000D01*
X190600000Y-43050000D02*
X192300000Y-44750000D01*
X192300000Y-44750000D02*
X193500000Y-44750000D01*
X200985002Y-75750000D02*
X201225001Y-75510001D01*
X197750000Y-75750000D02*
X200985002Y-75750000D01*
X201225001Y-75510001D02*
X201225001Y-66576839D01*
X201225001Y-66576839D02*
X199898162Y-65250000D01*
X199898162Y-65250000D02*
X198500000Y-65250000D01*
X185504749Y-73250000D02*
X185500000Y-73254749D01*
X190000000Y-73250000D02*
X185504749Y-73250000D01*
D22*
X196400000Y-42750000D02*
X196400000Y-43350000D01*
X196400000Y-43350000D02*
X196250000Y-43500000D01*
D23*
X180000000Y-72000000D02*
X184000000Y-72000000D01*
X180000000Y-70501400D02*
X178900370Y-70501400D01*
X178900370Y-70501400D02*
X178825369Y-70576401D01*
X178825369Y-70576401D02*
X178825369Y-72859441D01*
X178825369Y-72859441D02*
X178965928Y-73000000D01*
X178965928Y-73000000D02*
X183750000Y-73000000D01*
X194250000Y-78000000D02*
X195925029Y-79675029D01*
X199275034Y-79675029D02*
X199575033Y-79375030D01*
X195925029Y-79675029D02*
X199275034Y-79675029D01*
X199927591Y-77777031D02*
X200227590Y-77477032D01*
X195500000Y-78250000D02*
X196225001Y-78975001D01*
X196225001Y-78975001D02*
X198729621Y-78975001D01*
X198729621Y-78975001D02*
X199927591Y-77777031D01*
X178375359Y-52955719D02*
X178375359Y-56476289D01*
X178375359Y-56476289D02*
X178900370Y-57001300D01*
X178900370Y-57001300D02*
X180000000Y-57001300D01*
X182750000Y-47500000D02*
X178500000Y-51750000D01*
X178500000Y-51750000D02*
X178500000Y-52831078D01*
X183350000Y-47500000D02*
X182750000Y-47500000D01*
X178500000Y-52831078D02*
X178375359Y-52955719D01*
X185000000Y-42000000D02*
X185000000Y-45850000D01*
X185000000Y-45850000D02*
X184250000Y-46600000D01*
X184250000Y-46600000D02*
X183950000Y-46600000D01*
X183950000Y-46600000D02*
X183350000Y-47200000D01*
X183350000Y-47200000D02*
X183350000Y-47500000D01*
X189200001Y-69624979D02*
X189500000Y-69324980D01*
X183250000Y-69750000D02*
X189074980Y-69750000D01*
X189074980Y-69750000D02*
X189200001Y-69624979D01*
X197860590Y-64624980D02*
X197436326Y-64624980D01*
X199311982Y-64624980D02*
X197860590Y-64624980D01*
X201209201Y-62727761D02*
X199311982Y-64624980D01*
X201209201Y-61578201D02*
X201209201Y-62727761D01*
X200500000Y-61500000D02*
X201131000Y-61500000D01*
X201131000Y-61500000D02*
X201209201Y-61578201D01*
X194549989Y-62111459D02*
X194920484Y-61740964D01*
X194099350Y-67501660D02*
X194549989Y-67051021D01*
X194920484Y-61740964D02*
X195220483Y-61440965D01*
X192999720Y-67501660D02*
X194099350Y-67501660D01*
X194549989Y-67051021D02*
X194549989Y-62111459D01*
X198475001Y-60817201D02*
X198475001Y-59975001D01*
X199869000Y-62211200D02*
X198475001Y-60817201D01*
X200500000Y-62211200D02*
X199869000Y-62211200D01*
X198475001Y-59975001D02*
X198000000Y-59500000D01*
X195750000Y-58000000D02*
X194753840Y-57003840D01*
X194753840Y-57003840D02*
X192999720Y-57003840D01*
X200500000Y-60788800D02*
X200373000Y-60788800D01*
X200373000Y-60788800D02*
X198250000Y-58665800D01*
X198250000Y-58665800D02*
X198250000Y-58500000D01*
X194524673Y-72000000D02*
X195349703Y-71174970D01*
X197925051Y-69849187D02*
X197925051Y-70325736D01*
X199985438Y-67788800D02*
X197925051Y-69849187D01*
X200500000Y-67788800D02*
X199985438Y-67788800D01*
X195349703Y-71174970D02*
X195649702Y-70874971D01*
X197925051Y-70325736D02*
X197925051Y-70750000D01*
X192999720Y-72000000D02*
X194524673Y-72000000D01*
X200500000Y-68500000D02*
X200500000Y-72750000D01*
X200500000Y-72750000D02*
X200250000Y-73000000D01*
X196250000Y-57574998D02*
X196250000Y-44500000D01*
X196250000Y-44500000D02*
X195400000Y-43650000D01*
X195400000Y-43650000D02*
X195100000Y-43650000D01*
X195100000Y-43650000D02*
X194500000Y-43050000D01*
X194500000Y-43050000D02*
X194500000Y-42750000D01*
X195450009Y-67156091D02*
X195450009Y-62435934D01*
X195450009Y-62435934D02*
X196375001Y-61510942D01*
X196375001Y-61510942D02*
X196375001Y-57699999D01*
X196375001Y-57699999D02*
X196250000Y-57574998D01*
X196274703Y-67980785D02*
X195450009Y-67156091D01*
X196274703Y-71621173D02*
X196274703Y-67980785D01*
X195750000Y-72145876D02*
X196274703Y-71621173D01*
X195750000Y-74750000D02*
X195750000Y-72145876D01*
D22*
X192500000Y-42750000D02*
X194500000Y-42750000D01*
D23*
X190399830Y-67500000D02*
X191900090Y-69000260D01*
X191900090Y-69000260D02*
X192999720Y-69000260D01*
X185250000Y-67500000D02*
X190399830Y-67500000D01*
D24*
G36*
X201819000Y-79319000D02*
X200255912Y-79319000D01*
X200256062Y-79308255D01*
X200230122Y-79177247D01*
X200179230Y-79053773D01*
X200105324Y-78942536D01*
X200011219Y-78847772D01*
X199900500Y-78773091D01*
X199777385Y-78721338D01*
X199712247Y-78707967D01*
X200261298Y-78158916D01*
X200280088Y-78159310D01*
X200411610Y-78136119D01*
X200536123Y-78087824D01*
X200648884Y-78016264D01*
X200745598Y-77924164D01*
X200822581Y-77815034D01*
X200876901Y-77693029D01*
X200906489Y-77562797D01*
X200908619Y-77410257D01*
X200882679Y-77279249D01*
X200831787Y-77155775D01*
X200757881Y-77044538D01*
X200663776Y-76949774D01*
X200553057Y-76875093D01*
X200429942Y-76823340D01*
X200299118Y-76796486D01*
X200165571Y-76795553D01*
X200034385Y-76820578D01*
X199910559Y-76870607D01*
X199798808Y-76943735D01*
X199703390Y-77037176D01*
X199627938Y-77147370D01*
X199575326Y-77270122D01*
X199547560Y-77400754D01*
X199546983Y-77442047D01*
X198520029Y-78469001D01*
X196434593Y-78469001D01*
X196180585Y-78214993D01*
X196181029Y-78183225D01*
X196155089Y-78052217D01*
X196104197Y-77928743D01*
X196030291Y-77817506D01*
X195936186Y-77722742D01*
X195825467Y-77648061D01*
X195702352Y-77596308D01*
X195571528Y-77569454D01*
X195437981Y-77568521D01*
X195306795Y-77593546D01*
X195182969Y-77643575D01*
X195071218Y-77716703D01*
X194975800Y-77810144D01*
X194922168Y-77888471D01*
X194905089Y-77802217D01*
X194854197Y-77678743D01*
X194780291Y-77567506D01*
X194686186Y-77472742D01*
X194575467Y-77398061D01*
X194452352Y-77346308D01*
X194321528Y-77319454D01*
X194187981Y-77318521D01*
X194056795Y-77343546D01*
X193932969Y-77393575D01*
X193821218Y-77466703D01*
X193725800Y-77560144D01*
X193650348Y-77670338D01*
X193597736Y-77793090D01*
X193569970Y-77923722D01*
X193568105Y-78057260D01*
X193592213Y-78188617D01*
X193641377Y-78312790D01*
X193713722Y-78425048D01*
X193806495Y-78521117D01*
X193916160Y-78597336D01*
X194038541Y-78650803D01*
X194168977Y-78679481D01*
X194214850Y-78680442D01*
X194853408Y-79319000D01*
X178181000Y-79319000D01*
X178181000Y-56997522D01*
X178542574Y-57359096D01*
X178578688Y-57388760D01*
X178614497Y-57418807D01*
X178616828Y-57420089D01*
X178618885Y-57421778D01*
X178660104Y-57443880D01*
X178701035Y-57466382D01*
X178703568Y-57467186D01*
X178705917Y-57468445D01*
X178750626Y-57482113D01*
X178767527Y-57487475D01*
X178767527Y-57600740D01*
X178772365Y-57661413D01*
X178800870Y-57753458D01*
X178782684Y-57793802D01*
X178767527Y-57900460D01*
X178767527Y-59099340D01*
X178772365Y-59160013D01*
X178801336Y-59253563D01*
X178782684Y-59294942D01*
X178767527Y-59401600D01*
X178767527Y-60600480D01*
X178772365Y-60661153D01*
X178800870Y-60753198D01*
X178782684Y-60793542D01*
X178767527Y-60900200D01*
X178767527Y-62099080D01*
X178772365Y-62159753D01*
X178801336Y-62253303D01*
X178782684Y-62294682D01*
X178767527Y-62401340D01*
X178767527Y-63600220D01*
X178772365Y-63660893D01*
X178800870Y-63752938D01*
X178782684Y-63793282D01*
X178767527Y-63899940D01*
X178767527Y-65098820D01*
X178772365Y-65159493D01*
X178801336Y-65253043D01*
X178782684Y-65294422D01*
X178767527Y-65401080D01*
X178767527Y-66599960D01*
X178772365Y-66660633D01*
X178801336Y-66754183D01*
X178782684Y-66795562D01*
X178767527Y-66902220D01*
X178767527Y-68101100D01*
X178772365Y-68161773D01*
X178800870Y-68253818D01*
X178782684Y-68294162D01*
X178767527Y-68400820D01*
X178767527Y-69599700D01*
X178772365Y-69660373D01*
X178801336Y-69753923D01*
X178782684Y-69795302D01*
X178767527Y-69901960D01*
X178767527Y-70015471D01*
X178757272Y-70018567D01*
X178712458Y-70031587D01*
X178710099Y-70032810D01*
X178707548Y-70033580D01*
X178666260Y-70055533D01*
X178624782Y-70077033D01*
X178622702Y-70078694D01*
X178620354Y-70079942D01*
X178584157Y-70109464D01*
X178547604Y-70138643D01*
X178543902Y-70142294D01*
X178543825Y-70142357D01*
X178543766Y-70142428D01*
X178542574Y-70143604D01*
X178467573Y-70218605D01*
X178437909Y-70254719D01*
X178407862Y-70290528D01*
X178406580Y-70292859D01*
X178404891Y-70294916D01*
X178382808Y-70336100D01*
X178360287Y-70377066D01*
X178359482Y-70379604D01*
X178358225Y-70381948D01*
X178344566Y-70426623D01*
X178330426Y-70471198D01*
X178330129Y-70473844D01*
X178329352Y-70476386D01*
X178324632Y-70522852D01*
X178319418Y-70569336D01*
X178319382Y-70574537D01*
X178319372Y-70574635D01*
X178319381Y-70574726D01*
X178319369Y-70576401D01*
X178319369Y-72859441D01*
X178323931Y-72905971D01*
X178328004Y-72952520D01*
X178328746Y-72955075D01*
X178329006Y-72957724D01*
X178342514Y-73002463D01*
X178355555Y-73047353D01*
X178356780Y-73049717D01*
X178357549Y-73052263D01*
X178379484Y-73093516D01*
X178401002Y-73135029D01*
X178402663Y-73137109D01*
X178403911Y-73139457D01*
X178433433Y-73175654D01*
X178462612Y-73212207D01*
X178466263Y-73215909D01*
X178466326Y-73215986D01*
X178466397Y-73216045D01*
X178467573Y-73217237D01*
X178608132Y-73357796D01*
X178644246Y-73387460D01*
X178680055Y-73417507D01*
X178682386Y-73418789D01*
X178684443Y-73420478D01*
X178725627Y-73442561D01*
X178766593Y-73465082D01*
X178769131Y-73465887D01*
X178771475Y-73467144D01*
X178816150Y-73480803D01*
X178860725Y-73494943D01*
X178863371Y-73495240D01*
X178865913Y-73496017D01*
X178912383Y-73500737D01*
X178958863Y-73505951D01*
X178964063Y-73505987D01*
X178964161Y-73505997D01*
X178964252Y-73505988D01*
X178965928Y-73506000D01*
X183291897Y-73506000D01*
X183306495Y-73521117D01*
X183416160Y-73597336D01*
X183538541Y-73650803D01*
X183668977Y-73679481D01*
X183802498Y-73682278D01*
X183934020Y-73659087D01*
X184058533Y-73610792D01*
X184171294Y-73539232D01*
X184268008Y-73447132D01*
X184344991Y-73338002D01*
X184356563Y-73312009D01*
X184818105Y-73312009D01*
X184842213Y-73443366D01*
X184891377Y-73567539D01*
X184963722Y-73679797D01*
X185056495Y-73775866D01*
X185166160Y-73852085D01*
X185288541Y-73905552D01*
X185418977Y-73934230D01*
X185552498Y-73937027D01*
X185684020Y-73913836D01*
X185808533Y-73865541D01*
X185921294Y-73793981D01*
X185961178Y-73756000D01*
X189541897Y-73756000D01*
X189556495Y-73771117D01*
X189666160Y-73847336D01*
X189788541Y-73900803D01*
X189918977Y-73929481D01*
X190052498Y-73932278D01*
X190184020Y-73909087D01*
X190308533Y-73860792D01*
X190421294Y-73789232D01*
X190518008Y-73697132D01*
X190594991Y-73588002D01*
X190649311Y-73465997D01*
X190678899Y-73335765D01*
X190681029Y-73183225D01*
X190655089Y-73052217D01*
X190604197Y-72928743D01*
X190530291Y-72817506D01*
X190436186Y-72722742D01*
X190325467Y-72648061D01*
X190202352Y-72596308D01*
X190071528Y-72569454D01*
X189937981Y-72568521D01*
X189806795Y-72593546D01*
X189682969Y-72643575D01*
X189571218Y-72716703D01*
X189543343Y-72744000D01*
X185952580Y-72744000D01*
X185936186Y-72727491D01*
X185825467Y-72652810D01*
X185702352Y-72601057D01*
X185571528Y-72574203D01*
X185437981Y-72573270D01*
X185306795Y-72598295D01*
X185182969Y-72648324D01*
X185071218Y-72721452D01*
X184975800Y-72814893D01*
X184900348Y-72925087D01*
X184847736Y-73047839D01*
X184819970Y-73178471D01*
X184818105Y-73312009D01*
X184356563Y-73312009D01*
X184399311Y-73215997D01*
X184428899Y-73085765D01*
X184431029Y-72933225D01*
X184405089Y-72802217D01*
X184354197Y-72678743D01*
X184308897Y-72610561D01*
X184421294Y-72539232D01*
X184518008Y-72447132D01*
X184594991Y-72338002D01*
X184649311Y-72215997D01*
X184678899Y-72085765D01*
X184681029Y-71933225D01*
X184655089Y-71802217D01*
X184604197Y-71678743D01*
X184530291Y-71567506D01*
X184436186Y-71472742D01*
X184325467Y-71398061D01*
X184202352Y-71346308D01*
X184071528Y-71319454D01*
X183937981Y-71318521D01*
X183806795Y-71343546D01*
X183682969Y-71393575D01*
X183571218Y-71466703D01*
X183543343Y-71494000D01*
X181232473Y-71494000D01*
X181232473Y-71400560D01*
X181227635Y-71339887D01*
X181199130Y-71247842D01*
X181217316Y-71207498D01*
X181232473Y-71100840D01*
X181232473Y-69901960D01*
X181227635Y-69841287D01*
X181217098Y-69807260D01*
X182568105Y-69807260D01*
X182592213Y-69938617D01*
X182641377Y-70062790D01*
X182713722Y-70175048D01*
X182806495Y-70271117D01*
X182916160Y-70347336D01*
X183038541Y-70400803D01*
X183168977Y-70429481D01*
X183302498Y-70432278D01*
X183434020Y-70409087D01*
X183558533Y-70360792D01*
X183671294Y-70289232D01*
X183706191Y-70256000D01*
X189074980Y-70256000D01*
X189121510Y-70251438D01*
X189168059Y-70247365D01*
X189170614Y-70246623D01*
X189173263Y-70246363D01*
X189218002Y-70232855D01*
X189262892Y-70219814D01*
X189265256Y-70218589D01*
X189267802Y-70217820D01*
X189309055Y-70195885D01*
X189350568Y-70174367D01*
X189352648Y-70172706D01*
X189354996Y-70171458D01*
X189391193Y-70141936D01*
X189427746Y-70112757D01*
X189431448Y-70109106D01*
X189431525Y-70109043D01*
X189431584Y-70108972D01*
X189432776Y-70107796D01*
X189533708Y-70006864D01*
X189552498Y-70007258D01*
X189684020Y-69984067D01*
X189808533Y-69935772D01*
X189921294Y-69864212D01*
X190018008Y-69772112D01*
X190094991Y-69662982D01*
X190149311Y-69540977D01*
X190178899Y-69410745D01*
X190181029Y-69258205D01*
X190155089Y-69127197D01*
X190104197Y-69003723D01*
X190030291Y-68892486D01*
X189936186Y-68797722D01*
X189825467Y-68723041D01*
X189702352Y-68671288D01*
X189571528Y-68644434D01*
X189437981Y-68643501D01*
X189306795Y-68668526D01*
X189182969Y-68718555D01*
X189071218Y-68791683D01*
X188975800Y-68885124D01*
X188900348Y-68995318D01*
X188847736Y-69118070D01*
X188820969Y-69244000D01*
X183707296Y-69244000D01*
X183686186Y-69222742D01*
X183575467Y-69148061D01*
X183452352Y-69096308D01*
X183321528Y-69069454D01*
X183187981Y-69068521D01*
X183056795Y-69093546D01*
X182932969Y-69143575D01*
X182821218Y-69216703D01*
X182725800Y-69310144D01*
X182650348Y-69420338D01*
X182597736Y-69543090D01*
X182569970Y-69673722D01*
X182568105Y-69807260D01*
X181217098Y-69807260D01*
X181198664Y-69747737D01*
X181217316Y-69706358D01*
X181232473Y-69599700D01*
X181232473Y-68400820D01*
X181227635Y-68340147D01*
X181199130Y-68248102D01*
X181217316Y-68207758D01*
X181232473Y-68101100D01*
X181232473Y-67557260D01*
X184568105Y-67557260D01*
X184592213Y-67688617D01*
X184641377Y-67812790D01*
X184713722Y-67925048D01*
X184806495Y-68021117D01*
X184916160Y-68097336D01*
X185038541Y-68150803D01*
X185168977Y-68179481D01*
X185302498Y-68182278D01*
X185434020Y-68159087D01*
X185558533Y-68110792D01*
X185671294Y-68039232D01*
X185706191Y-68006000D01*
X190190238Y-68006000D01*
X191542294Y-69358056D01*
X191578408Y-69387720D01*
X191614217Y-69417767D01*
X191616548Y-69419049D01*
X191618605Y-69420738D01*
X191659789Y-69442821D01*
X191700755Y-69465342D01*
X191703293Y-69466147D01*
X191705637Y-69467404D01*
X191750312Y-69481063D01*
X191767247Y-69486435D01*
X191767247Y-69599700D01*
X191772085Y-69660373D01*
X191801056Y-69753923D01*
X191782404Y-69795302D01*
X191767247Y-69901960D01*
X191767247Y-71100840D01*
X191772085Y-71161513D01*
X191800590Y-71253558D01*
X191782404Y-71293902D01*
X191767247Y-71400560D01*
X191767247Y-72599440D01*
X191772085Y-72660113D01*
X191803954Y-72763020D01*
X191863230Y-72852975D01*
X191945220Y-72922855D01*
X192043432Y-72967126D01*
X192150090Y-72982283D01*
X193849350Y-72982283D01*
X193910023Y-72977445D01*
X194012930Y-72945576D01*
X194102885Y-72886300D01*
X194172765Y-72804310D01*
X194217036Y-72706098D01*
X194232193Y-72599440D01*
X194232193Y-72506000D01*
X194524673Y-72506000D01*
X194571203Y-72501438D01*
X194617752Y-72497365D01*
X194620307Y-72496623D01*
X194622956Y-72496363D01*
X194667695Y-72482855D01*
X194712585Y-72469814D01*
X194714949Y-72468589D01*
X194717495Y-72467820D01*
X194758748Y-72445885D01*
X194800261Y-72424367D01*
X194802341Y-72422706D01*
X194804689Y-72421458D01*
X194840886Y-72391936D01*
X194877439Y-72362757D01*
X194881141Y-72359106D01*
X194881218Y-72359043D01*
X194881277Y-72358972D01*
X194882469Y-72357796D01*
X195280220Y-71960045D01*
X195269197Y-71996098D01*
X195255057Y-72040673D01*
X195254760Y-72043319D01*
X195253983Y-72045861D01*
X195249263Y-72092327D01*
X195244049Y-72138811D01*
X195244013Y-72144012D01*
X195244003Y-72144110D01*
X195244012Y-72144201D01*
X195244000Y-72145876D01*
X195244000Y-74292321D01*
X195225800Y-74310144D01*
X195150348Y-74420338D01*
X195097736Y-74543090D01*
X195069970Y-74673722D01*
X195068105Y-74807260D01*
X195092213Y-74938617D01*
X195141377Y-75062790D01*
X195213722Y-75175048D01*
X195306495Y-75271117D01*
X195416160Y-75347336D01*
X195538541Y-75400803D01*
X195668977Y-75429481D01*
X195802498Y-75432278D01*
X195934020Y-75409087D01*
X196058533Y-75360792D01*
X196171294Y-75289232D01*
X196268008Y-75197132D01*
X196344991Y-75088002D01*
X196399311Y-74965997D01*
X196418999Y-74879340D01*
X196418999Y-75544698D01*
X196135086Y-75828611D01*
X196056795Y-75843546D01*
X195932969Y-75893575D01*
X195821218Y-75966703D01*
X195725800Y-76060144D01*
X195650348Y-76170338D01*
X195597736Y-76293090D01*
X195569970Y-76423722D01*
X195568105Y-76557260D01*
X195592213Y-76688617D01*
X195641377Y-76812790D01*
X195713722Y-76925048D01*
X195806495Y-77021117D01*
X195916160Y-77097336D01*
X196038541Y-77150803D01*
X196168977Y-77179481D01*
X196302498Y-77182278D01*
X196434020Y-77159087D01*
X196558533Y-77110792D01*
X196671294Y-77039232D01*
X196768008Y-76947132D01*
X196844991Y-76838002D01*
X196899311Y-76715997D01*
X196922538Y-76613765D01*
X197215734Y-76320568D01*
X197281856Y-76375269D01*
X197203563Y-76438218D01*
X197105586Y-76554982D01*
X197032155Y-76688552D01*
X196986067Y-76833842D01*
X196969076Y-76985317D01*
X196969000Y-76996221D01*
X196969000Y-77003779D01*
X196983874Y-77155476D01*
X197027930Y-77301395D01*
X197099489Y-77435978D01*
X197195825Y-77554098D01*
X197313270Y-77651257D01*
X197447350Y-77723754D01*
X197592958Y-77768827D01*
X197744548Y-77784760D01*
X197896345Y-77770945D01*
X198042568Y-77727910D01*
X198177647Y-77657292D01*
X198296437Y-77561782D01*
X198394414Y-77445018D01*
X198467845Y-77311448D01*
X198513933Y-77166158D01*
X198530924Y-77014683D01*
X198531000Y-77003779D01*
X198531000Y-76996221D01*
X198516126Y-76844524D01*
X198472070Y-76698605D01*
X198400511Y-76564022D01*
X198304175Y-76445902D01*
X198218144Y-76374731D01*
X198296437Y-76311782D01*
X198343244Y-76256000D01*
X200985002Y-76256000D01*
X201031532Y-76251438D01*
X201078081Y-76247365D01*
X201080636Y-76246623D01*
X201083285Y-76246363D01*
X201128024Y-76232855D01*
X201172914Y-76219814D01*
X201175278Y-76218589D01*
X201177824Y-76217820D01*
X201219077Y-76195885D01*
X201260590Y-76174367D01*
X201262670Y-76172706D01*
X201265018Y-76171458D01*
X201301215Y-76141936D01*
X201337768Y-76112757D01*
X201341470Y-76109106D01*
X201341547Y-76109043D01*
X201341606Y-76108972D01*
X201342798Y-76107796D01*
X201582797Y-75867797D01*
X201612461Y-75831683D01*
X201642508Y-75795874D01*
X201643790Y-75793543D01*
X201645479Y-75791486D01*
X201667581Y-75750267D01*
X201690083Y-75709336D01*
X201690887Y-75706803D01*
X201692146Y-75704454D01*
X201705814Y-75659745D01*
X201719944Y-75615204D01*
X201720241Y-75612557D01*
X201721018Y-75610015D01*
X201725737Y-75563555D01*
X201730952Y-75517066D01*
X201730988Y-75511865D01*
X201730998Y-75511767D01*
X201730989Y-75511676D01*
X201731001Y-75510001D01*
X201731001Y-66576839D01*
X201726443Y-66530350D01*
X201722366Y-66483760D01*
X201721624Y-66481205D01*
X201721364Y-66478556D01*
X201707852Y-66433803D01*
X201694815Y-66388928D01*
X201693590Y-66386566D01*
X201692821Y-66384017D01*
X201670898Y-66342785D01*
X201649369Y-66301251D01*
X201647705Y-66299167D01*
X201646459Y-66296823D01*
X201616940Y-66260629D01*
X201587758Y-66224074D01*
X201584108Y-66220373D01*
X201584044Y-66220294D01*
X201583971Y-66220234D01*
X201582797Y-66219043D01*
X200255958Y-64892204D01*
X200219844Y-64862540D01*
X200184035Y-64832493D01*
X200181704Y-64831211D01*
X200179647Y-64829522D01*
X200138463Y-64807439D01*
X200097497Y-64784918D01*
X200094959Y-64784113D01*
X200092615Y-64782856D01*
X200047940Y-64769197D01*
X200003365Y-64755057D01*
X200000719Y-64754760D01*
X199998177Y-64753983D01*
X199951711Y-64749263D01*
X199908174Y-64744380D01*
X201566997Y-63085557D01*
X201596661Y-63049443D01*
X201626708Y-63013634D01*
X201627990Y-63011303D01*
X201629679Y-63009246D01*
X201651781Y-62968027D01*
X201674283Y-62927096D01*
X201675087Y-62924563D01*
X201676346Y-62922214D01*
X201690014Y-62877505D01*
X201704144Y-62832964D01*
X201704441Y-62830317D01*
X201705218Y-62827775D01*
X201709937Y-62781315D01*
X201715152Y-62734826D01*
X201715188Y-62729625D01*
X201715198Y-62729527D01*
X201715189Y-62729436D01*
X201715201Y-62727761D01*
X201715201Y-61578201D01*
X201710639Y-61531671D01*
X201706566Y-61485122D01*
X201705824Y-61482567D01*
X201705564Y-61479918D01*
X201692052Y-61435165D01*
X201679015Y-61390290D01*
X201677790Y-61387928D01*
X201677021Y-61385379D01*
X201655077Y-61344108D01*
X201633568Y-61302613D01*
X201631907Y-61300533D01*
X201630659Y-61298185D01*
X201601137Y-61261988D01*
X201571958Y-61225435D01*
X201568307Y-61221733D01*
X201568244Y-61221656D01*
X201568173Y-61221597D01*
X201566997Y-61220405D01*
X201488796Y-61142204D01*
X201452682Y-61112540D01*
X201416873Y-61082493D01*
X201414542Y-61081211D01*
X201412485Y-61079522D01*
X201371301Y-61057439D01*
X201330335Y-61034918D01*
X201327797Y-61034113D01*
X201325453Y-61032856D01*
X201280778Y-61019197D01*
X201263843Y-61013825D01*
X201263843Y-60534800D01*
X201259005Y-60474127D01*
X201227136Y-60371220D01*
X201167860Y-60281265D01*
X201085870Y-60211385D01*
X200987658Y-60167114D01*
X200881000Y-60151957D01*
X200451749Y-60151957D01*
X198920875Y-58621083D01*
X198928899Y-58585765D01*
X198931029Y-58433225D01*
X198905089Y-58302217D01*
X198854197Y-58178743D01*
X198780291Y-58067506D01*
X198686186Y-57972742D01*
X198575467Y-57898061D01*
X198452352Y-57846308D01*
X198321528Y-57819454D01*
X198187981Y-57818521D01*
X198056795Y-57843546D01*
X197932969Y-57893575D01*
X197821218Y-57966703D01*
X197725800Y-58060144D01*
X197650348Y-58170338D01*
X197597736Y-58293090D01*
X197569970Y-58423722D01*
X197568105Y-58557260D01*
X197592213Y-58688617D01*
X197641377Y-58812790D01*
X197691276Y-58890219D01*
X197682969Y-58893575D01*
X197571218Y-58966703D01*
X197530999Y-59006089D01*
X197530999Y-56749648D01*
X197592958Y-56768827D01*
X197744548Y-56784760D01*
X197896345Y-56770945D01*
X198042568Y-56727910D01*
X198177647Y-56657292D01*
X198296437Y-56561782D01*
X198394414Y-56445018D01*
X198467845Y-56311448D01*
X198513933Y-56166158D01*
X198530924Y-56014683D01*
X198531000Y-56003779D01*
X198531000Y-55996221D01*
X198516126Y-55844524D01*
X198472070Y-55698605D01*
X198400511Y-55564022D01*
X198304175Y-55445902D01*
X198218144Y-55374731D01*
X198296437Y-55311782D01*
X198394414Y-55195018D01*
X198467845Y-55061448D01*
X198513933Y-54916158D01*
X198530924Y-54764683D01*
X198531000Y-54753779D01*
X198531000Y-54746221D01*
X198516126Y-54594524D01*
X198472070Y-54448605D01*
X198400511Y-54314022D01*
X198304175Y-54195902D01*
X198186730Y-54098743D01*
X198052650Y-54026246D01*
X197907042Y-53981173D01*
X197755452Y-53965240D01*
X197603655Y-53979055D01*
X197530999Y-54000438D01*
X197530999Y-53980305D01*
X198918152Y-52593152D01*
X198950708Y-52553518D01*
X198983764Y-52514123D01*
X198985174Y-52511558D01*
X198987028Y-52509301D01*
X199011286Y-52464060D01*
X199036040Y-52419033D01*
X199036924Y-52416247D01*
X199038306Y-52413669D01*
X199053326Y-52364541D01*
X199068851Y-52315600D01*
X199069177Y-52312695D01*
X199070032Y-52309898D01*
X199075224Y-52258788D01*
X199080947Y-52207764D01*
X199080987Y-52202052D01*
X199080998Y-52201941D01*
X199080988Y-52201838D01*
X199081001Y-52200001D01*
X199081001Y-50459316D01*
X199075996Y-50408269D01*
X199071514Y-50357040D01*
X199070697Y-50354228D01*
X199070412Y-50351322D01*
X199055570Y-50302162D01*
X199041239Y-50252836D01*
X199039895Y-50250243D01*
X199039049Y-50247441D01*
X199014924Y-50202069D01*
X198991302Y-50156497D01*
X198989478Y-50154212D01*
X198988105Y-50151630D01*
X198955664Y-50111854D01*
X198923604Y-50071692D01*
X198919588Y-50067620D01*
X198919522Y-50067539D01*
X198919447Y-50067477D01*
X198918153Y-50066165D01*
X198708836Y-49856849D01*
X198669180Y-49824275D01*
X198629807Y-49791237D01*
X198627245Y-49789828D01*
X198624986Y-49787973D01*
X198579704Y-49763693D01*
X198534717Y-49738961D01*
X198531933Y-49738078D01*
X198529354Y-49736695D01*
X198480211Y-49721671D01*
X198431284Y-49706150D01*
X198428379Y-49705824D01*
X198425582Y-49704969D01*
X198374472Y-49699777D01*
X198323448Y-49694054D01*
X198317736Y-49694014D01*
X198317625Y-49694003D01*
X198317522Y-49694013D01*
X198315685Y-49694000D01*
X198301876Y-49694000D01*
X198218144Y-49624731D01*
X198296437Y-49561782D01*
X198394414Y-49445018D01*
X198467845Y-49311448D01*
X198513933Y-49166158D01*
X198530924Y-49014683D01*
X198531000Y-49003779D01*
X198531000Y-48996221D01*
X198516126Y-48844524D01*
X198472070Y-48698605D01*
X198400511Y-48564022D01*
X198304175Y-48445902D01*
X198186730Y-48348743D01*
X198052650Y-48276246D01*
X197907042Y-48231173D01*
X197755452Y-48215240D01*
X197603655Y-48229055D01*
X197457432Y-48272090D01*
X197322353Y-48342708D01*
X197203563Y-48438218D01*
X197105586Y-48554982D01*
X197032155Y-48688552D01*
X196986067Y-48833842D01*
X196969076Y-48985317D01*
X196969000Y-48996221D01*
X196969000Y-49003779D01*
X196983874Y-49155476D01*
X197027930Y-49301395D01*
X197099489Y-49435978D01*
X197195825Y-49554098D01*
X197281856Y-49625269D01*
X197203563Y-49688218D01*
X197105586Y-49804982D01*
X197032155Y-49938552D01*
X196986067Y-50083842D01*
X196969076Y-50235317D01*
X196969000Y-50246221D01*
X196969000Y-50253779D01*
X196983874Y-50405476D01*
X197027930Y-50551395D01*
X197099489Y-50685978D01*
X197195825Y-50804098D01*
X197313270Y-50901257D01*
X197447350Y-50973754D01*
X197592958Y-51018827D01*
X197744548Y-51034760D01*
X197896345Y-51020945D01*
X197969001Y-50999562D01*
X197969001Y-51969699D01*
X196756000Y-53182700D01*
X196756000Y-44500000D01*
X196751442Y-44453511D01*
X196747365Y-44406921D01*
X196746623Y-44404366D01*
X196746363Y-44401717D01*
X196732851Y-44356964D01*
X196719814Y-44312089D01*
X196718589Y-44309727D01*
X196717820Y-44307178D01*
X196695886Y-44265926D01*
X196674368Y-44224413D01*
X196672706Y-44222331D01*
X196671458Y-44219984D01*
X196641921Y-44183768D01*
X196612757Y-44147235D01*
X196609107Y-44143534D01*
X196609043Y-44143455D01*
X196608970Y-44143395D01*
X196607796Y-44142204D01*
X196248435Y-43782843D01*
X196750000Y-43782843D01*
X196810673Y-43778005D01*
X196913580Y-43746136D01*
X197003535Y-43686860D01*
X197073415Y-43604870D01*
X197117686Y-43506658D01*
X197132843Y-43400000D01*
X197132843Y-42100000D01*
X197128005Y-42039327D01*
X197096136Y-41936420D01*
X197036860Y-41846465D01*
X196954870Y-41776585D01*
X196856658Y-41732314D01*
X196750000Y-41717157D01*
X196050000Y-41717157D01*
X195989327Y-41721995D01*
X195886420Y-41753864D01*
X195796465Y-41813140D01*
X195726585Y-41895130D01*
X195682314Y-41993342D01*
X195667157Y-42100000D01*
X195667157Y-43221839D01*
X195640301Y-43207439D01*
X195599335Y-43184918D01*
X195596797Y-43184113D01*
X195594453Y-43182856D01*
X195549778Y-43169197D01*
X195505203Y-43155057D01*
X195502557Y-43154760D01*
X195500015Y-43153983D01*
X195453549Y-43149263D01*
X195407065Y-43144049D01*
X195401864Y-43144013D01*
X195401766Y-43144003D01*
X195401675Y-43144012D01*
X195400000Y-43144000D01*
X195309592Y-43144000D01*
X195232843Y-43067251D01*
X195232843Y-42100000D01*
X195228005Y-42039327D01*
X195196136Y-41936420D01*
X195136860Y-41846465D01*
X195054870Y-41776585D01*
X194956658Y-41732314D01*
X194850000Y-41717157D01*
X194150000Y-41717157D01*
X194089327Y-41721995D01*
X193986420Y-41753864D01*
X193896465Y-41813140D01*
X193826585Y-41895130D01*
X193782314Y-41993342D01*
X193767157Y-42100000D01*
X193767157Y-42194000D01*
X193232843Y-42194000D01*
X193232843Y-42100000D01*
X193228005Y-42039327D01*
X193196136Y-41936420D01*
X193136860Y-41846465D01*
X193054870Y-41776585D01*
X192956658Y-41732314D01*
X192850000Y-41717157D01*
X192150000Y-41717157D01*
X192089327Y-41721995D01*
X191986420Y-41753864D01*
X191896465Y-41813140D01*
X191826585Y-41895130D01*
X191782314Y-41993342D01*
X191767157Y-42100000D01*
X191767157Y-43400000D01*
X191771995Y-43460673D01*
X191803864Y-43563580D01*
X191863140Y-43653535D01*
X191945130Y-43723415D01*
X192043342Y-43767686D01*
X192150000Y-43782843D01*
X192850000Y-43782843D01*
X192910673Y-43778005D01*
X193013580Y-43746136D01*
X193103535Y-43686860D01*
X193173415Y-43604870D01*
X193217686Y-43506658D01*
X193232843Y-43400000D01*
X193232843Y-43306000D01*
X193767157Y-43306000D01*
X193767157Y-43400000D01*
X193771995Y-43460673D01*
X193803864Y-43563580D01*
X193863140Y-43653535D01*
X193945130Y-43723415D01*
X194043342Y-43767686D01*
X194150000Y-43782843D01*
X194517251Y-43782843D01*
X194742204Y-44007796D01*
X194778318Y-44037460D01*
X194814127Y-44067507D01*
X194816458Y-44068789D01*
X194818515Y-44070478D01*
X194859699Y-44092561D01*
X194900665Y-44115082D01*
X194903203Y-44115887D01*
X194905547Y-44117144D01*
X194950222Y-44130803D01*
X194994797Y-44144943D01*
X194997443Y-44145240D01*
X194999985Y-44146017D01*
X195046451Y-44150737D01*
X195092935Y-44155951D01*
X195098136Y-44155987D01*
X195098234Y-44155997D01*
X195098325Y-44155988D01*
X195100000Y-44156000D01*
X195190408Y-44156000D01*
X195744000Y-44709592D01*
X195744000Y-57278408D01*
X195111636Y-56646044D01*
X195075522Y-56616380D01*
X195039713Y-56586333D01*
X195037382Y-56585051D01*
X195035325Y-56583362D01*
X194994141Y-56561279D01*
X194953175Y-56538758D01*
X194950637Y-56537953D01*
X194948293Y-56536696D01*
X194903618Y-56523037D01*
X194859043Y-56508897D01*
X194856397Y-56508600D01*
X194853855Y-56507823D01*
X194807389Y-56503103D01*
X194760905Y-56497889D01*
X194755704Y-56497853D01*
X194755606Y-56497843D01*
X194755515Y-56497852D01*
X194753840Y-56497840D01*
X194232193Y-56497840D01*
X194232193Y-56404400D01*
X194227355Y-56343727D01*
X194197917Y-56248671D01*
X194217036Y-56206258D01*
X194232193Y-56099600D01*
X194232193Y-54900720D01*
X194227355Y-54840047D01*
X194195486Y-54737140D01*
X194136210Y-54647185D01*
X194054220Y-54577305D01*
X193956008Y-54533034D01*
X193849350Y-54517877D01*
X192150090Y-54517877D01*
X192089417Y-54522715D01*
X191986510Y-54554584D01*
X191896555Y-54613860D01*
X191826675Y-54695850D01*
X191782404Y-54794062D01*
X191767247Y-54900720D01*
X191767247Y-56099600D01*
X191772085Y-56160273D01*
X191801523Y-56255329D01*
X191782404Y-56297742D01*
X191767247Y-56404400D01*
X191767247Y-57603280D01*
X191772085Y-57663953D01*
X191800124Y-57754492D01*
X191782404Y-57793802D01*
X191767247Y-57900460D01*
X191767247Y-59099340D01*
X191772085Y-59160013D01*
X191801056Y-59253563D01*
X191782404Y-59294942D01*
X191767247Y-59401600D01*
X191767247Y-60600480D01*
X191772085Y-60661153D01*
X191800590Y-60753198D01*
X191782404Y-60793542D01*
X191767247Y-60900200D01*
X191767247Y-62099080D01*
X191772085Y-62159753D01*
X191801056Y-62253303D01*
X191782404Y-62294682D01*
X191767247Y-62401340D01*
X191767247Y-63600220D01*
X191772085Y-63660893D01*
X191800590Y-63752938D01*
X191782404Y-63793282D01*
X191767247Y-63899940D01*
X191767247Y-65098820D01*
X191772085Y-65159493D01*
X191801056Y-65253043D01*
X191782404Y-65294422D01*
X191767247Y-65401080D01*
X191767247Y-66599960D01*
X191772085Y-66660633D01*
X191801056Y-66754183D01*
X191782404Y-66795562D01*
X191767247Y-66902220D01*
X191767247Y-68101100D01*
X191771642Y-68156220D01*
X190757626Y-67142204D01*
X190721512Y-67112540D01*
X190685703Y-67082493D01*
X190683372Y-67081211D01*
X190681315Y-67079522D01*
X190640131Y-67057439D01*
X190599165Y-67034918D01*
X190596627Y-67034113D01*
X190594283Y-67032856D01*
X190549608Y-67019197D01*
X190505033Y-67005057D01*
X190502387Y-67004760D01*
X190499845Y-67003983D01*
X190453379Y-66999263D01*
X190406895Y-66994049D01*
X190401694Y-66994013D01*
X190401596Y-66994003D01*
X190401505Y-66994012D01*
X190399830Y-66994000D01*
X185707296Y-66994000D01*
X185686186Y-66972742D01*
X185575467Y-66898061D01*
X185452352Y-66846308D01*
X185321528Y-66819454D01*
X185187981Y-66818521D01*
X185056795Y-66843546D01*
X184932969Y-66893575D01*
X184821218Y-66966703D01*
X184725800Y-67060144D01*
X184650348Y-67170338D01*
X184597736Y-67293090D01*
X184569970Y-67423722D01*
X184568105Y-67557260D01*
X181232473Y-67557260D01*
X181232473Y-66902220D01*
X181227635Y-66841547D01*
X181198664Y-66747997D01*
X181217316Y-66706618D01*
X181232473Y-66599960D01*
X181232473Y-65401080D01*
X181227635Y-65340407D01*
X181198664Y-65246857D01*
X181217316Y-65205478D01*
X181232473Y-65098820D01*
X181232473Y-63899940D01*
X181227635Y-63839267D01*
X181199130Y-63747222D01*
X181217316Y-63706878D01*
X181232473Y-63600220D01*
X181232473Y-62401340D01*
X181227635Y-62340667D01*
X181198664Y-62247117D01*
X181217316Y-62205738D01*
X181232473Y-62099080D01*
X181232473Y-60900200D01*
X181227635Y-60839527D01*
X181199130Y-60747482D01*
X181217316Y-60707138D01*
X181232473Y-60600480D01*
X181232473Y-59401600D01*
X181227635Y-59340927D01*
X181198664Y-59247377D01*
X181217316Y-59205998D01*
X181232473Y-59099340D01*
X181232473Y-57900460D01*
X181227635Y-57839787D01*
X181199130Y-57747742D01*
X181217316Y-57707398D01*
X181232473Y-57600740D01*
X181232473Y-56401860D01*
X181227635Y-56341187D01*
X181215648Y-56302480D01*
X183444000Y-58530833D01*
X183444000Y-62250000D01*
X183449009Y-62301089D01*
X183453488Y-62352277D01*
X183454304Y-62355085D01*
X183454589Y-62357994D01*
X183469440Y-62407183D01*
X183483762Y-62456480D01*
X183485106Y-62459073D01*
X183485952Y-62461875D01*
X183510077Y-62507247D01*
X183533699Y-62552819D01*
X183535523Y-62555104D01*
X183536896Y-62557686D01*
X183569362Y-62597493D01*
X183601398Y-62637624D01*
X183605408Y-62641690D01*
X183605479Y-62641777D01*
X183605560Y-62641844D01*
X183606849Y-62643151D01*
X183828703Y-62865005D01*
X183842213Y-62938617D01*
X183891377Y-63062790D01*
X183963722Y-63175048D01*
X184056495Y-63271117D01*
X184166160Y-63347336D01*
X184288541Y-63400803D01*
X184418977Y-63429481D01*
X184552498Y-63432278D01*
X184684020Y-63409087D01*
X184808533Y-63360792D01*
X184921294Y-63289232D01*
X185018008Y-63197132D01*
X185094991Y-63088002D01*
X185149311Y-62965997D01*
X185178899Y-62835765D01*
X185181029Y-62683225D01*
X185155089Y-62552217D01*
X185104197Y-62428743D01*
X185030291Y-62317506D01*
X184936186Y-62222742D01*
X184825467Y-62148061D01*
X184702352Y-62096308D01*
X184614597Y-62078295D01*
X184556000Y-62019698D01*
X184556000Y-58300530D01*
X184550991Y-58249441D01*
X184546512Y-58198253D01*
X184545696Y-58195445D01*
X184545411Y-58192536D01*
X184530560Y-58143347D01*
X184516238Y-58094050D01*
X184514894Y-58091457D01*
X184514048Y-58088655D01*
X184489923Y-58043283D01*
X184466301Y-57997711D01*
X184464477Y-57995426D01*
X184463104Y-57992844D01*
X184430638Y-57953037D01*
X184398602Y-57912906D01*
X184394589Y-57908836D01*
X184394521Y-57908753D01*
X184394444Y-57908689D01*
X184393151Y-57907378D01*
X181592781Y-55107009D01*
X181553125Y-55074435D01*
X181513752Y-55041397D01*
X181511190Y-55039988D01*
X181508931Y-55038133D01*
X181463649Y-55013853D01*
X181418662Y-54989121D01*
X181415878Y-54988238D01*
X181413299Y-54986855D01*
X181364156Y-54971831D01*
X181315229Y-54956310D01*
X181312324Y-54955984D01*
X181309527Y-54955129D01*
X181258417Y-54949937D01*
X181232473Y-54947027D01*
X181232473Y-54900720D01*
X181227635Y-54840047D01*
X181195766Y-54737140D01*
X181136490Y-54647185D01*
X181054500Y-54577305D01*
X180956288Y-54533034D01*
X180849630Y-54517877D01*
X179331369Y-54517877D01*
X179331369Y-53351711D01*
X179557807Y-53125273D01*
X179587471Y-53089159D01*
X179617518Y-53053350D01*
X179618800Y-53051019D01*
X179620489Y-53048962D01*
X179642591Y-53007743D01*
X179665093Y-52966812D01*
X179665897Y-52964279D01*
X179667156Y-52961930D01*
X179680824Y-52917221D01*
X179694954Y-52872680D01*
X179695251Y-52870033D01*
X179696028Y-52867491D01*
X179700747Y-52821031D01*
X179705962Y-52774542D01*
X179705998Y-52769341D01*
X179706008Y-52769243D01*
X179705999Y-52769152D01*
X179706011Y-52767477D01*
X179706011Y-52580829D01*
X180267397Y-52019443D01*
X180267397Y-53103670D01*
X180272235Y-53164343D01*
X180304104Y-53267250D01*
X180363380Y-53357205D01*
X180445370Y-53427085D01*
X180543582Y-53471356D01*
X180650240Y-53486513D01*
X181849120Y-53486513D01*
X181900704Y-53482400D01*
X181949050Y-53523605D01*
X182047262Y-53567876D01*
X182153920Y-53583033D01*
X183352800Y-53583033D01*
X183413473Y-53578195D01*
X183505518Y-53549690D01*
X183545862Y-53567876D01*
X183652520Y-53583033D01*
X184851400Y-53583033D01*
X184912073Y-53578195D01*
X185004118Y-53549690D01*
X185044462Y-53567876D01*
X185151120Y-53583033D01*
X186350000Y-53583033D01*
X186410673Y-53578195D01*
X186502718Y-53549690D01*
X186543062Y-53567876D01*
X186649720Y-53583033D01*
X187848600Y-53583033D01*
X187909273Y-53578195D01*
X188001318Y-53549690D01*
X188041662Y-53567876D01*
X188148320Y-53583033D01*
X189347200Y-53583033D01*
X189407873Y-53578195D01*
X189499918Y-53549690D01*
X189540262Y-53567876D01*
X189646920Y-53583033D01*
X190845800Y-53583033D01*
X190906473Y-53578195D01*
X191009380Y-53546326D01*
X191099335Y-53487050D01*
X191169215Y-53405060D01*
X191213486Y-53306848D01*
X191228643Y-53200190D01*
X191228643Y-51500930D01*
X191223805Y-51440257D01*
X191191936Y-51337350D01*
X191132660Y-51247395D01*
X191050670Y-51177515D01*
X190952458Y-51133244D01*
X190845800Y-51118087D01*
X189646920Y-51118087D01*
X189586247Y-51122925D01*
X189494202Y-51151430D01*
X189453858Y-51133244D01*
X189347200Y-51118087D01*
X188148320Y-51118087D01*
X188087647Y-51122925D01*
X187995602Y-51151430D01*
X187955258Y-51133244D01*
X187848600Y-51118087D01*
X186649720Y-51118087D01*
X186589047Y-51122925D01*
X186497002Y-51151430D01*
X186456658Y-51133244D01*
X186350000Y-51118087D01*
X185151120Y-51118087D01*
X185090447Y-51122925D01*
X184998402Y-51151430D01*
X184958058Y-51133244D01*
X184851400Y-51118087D01*
X183652520Y-51118087D01*
X183591847Y-51122925D01*
X183499802Y-51151430D01*
X183459458Y-51133244D01*
X183352800Y-51118087D01*
X182646089Y-51118087D01*
X182652766Y-51112757D01*
X182656468Y-51109106D01*
X182656545Y-51109043D01*
X182656604Y-51108972D01*
X182657796Y-51107796D01*
X185232749Y-48532843D01*
X185600000Y-48532843D01*
X185660673Y-48528005D01*
X185763580Y-48496136D01*
X185853535Y-48436860D01*
X185923415Y-48354870D01*
X185967686Y-48256658D01*
X185982843Y-48150000D01*
X185982843Y-46850000D01*
X185978005Y-46789327D01*
X185946136Y-46686420D01*
X185886860Y-46596465D01*
X185804870Y-46526585D01*
X185706658Y-46482314D01*
X185600000Y-46467157D01*
X185098435Y-46467157D01*
X185357796Y-46207796D01*
X185387460Y-46171682D01*
X185417507Y-46135873D01*
X185418789Y-46133542D01*
X185420478Y-46131485D01*
X185442561Y-46090301D01*
X185465082Y-46049335D01*
X185465887Y-46046797D01*
X185467144Y-46044453D01*
X185480803Y-45999778D01*
X185494943Y-45955203D01*
X185495240Y-45952557D01*
X185496017Y-45950015D01*
X185500737Y-45903549D01*
X185505951Y-45857065D01*
X185505987Y-45851864D01*
X185505997Y-45851766D01*
X185505988Y-45851675D01*
X185506000Y-45850000D01*
X185506000Y-44820905D01*
X185612882Y-44820905D01*
X185642466Y-44982094D01*
X185702794Y-45134467D01*
X185791570Y-45272220D01*
X185905412Y-45390106D01*
X186039983Y-45483635D01*
X186190158Y-45549245D01*
X186350216Y-45584436D01*
X186514061Y-45587868D01*
X186675453Y-45559410D01*
X186828243Y-45500147D01*
X186966613Y-45412335D01*
X187085291Y-45299319D01*
X187179758Y-45165404D01*
X187246414Y-45015691D01*
X187282722Y-44855883D01*
X187285335Y-44668699D01*
X187253504Y-44507939D01*
X187191054Y-44356423D01*
X187100363Y-44219923D01*
X186984887Y-44103638D01*
X186849023Y-44011996D01*
X186697947Y-43948490D01*
X186537413Y-43915537D01*
X186373536Y-43914393D01*
X186212557Y-43945101D01*
X186060609Y-44006492D01*
X185923479Y-44096228D01*
X185806390Y-44210889D01*
X185713803Y-44346110D01*
X185649243Y-44496739D01*
X185615170Y-44657039D01*
X185612882Y-44820905D01*
X185506000Y-44820905D01*
X185506000Y-43007365D01*
X185560673Y-43003005D01*
X185663580Y-42971136D01*
X185753535Y-42911860D01*
X185823415Y-42829870D01*
X185867686Y-42731658D01*
X185882843Y-42625000D01*
X185882843Y-41375000D01*
X185878005Y-41314327D01*
X185846136Y-41211420D01*
X185786860Y-41121465D01*
X185704870Y-41051585D01*
X185606658Y-41007314D01*
X185500000Y-40992157D01*
X184500000Y-40992157D01*
X184439327Y-40996995D01*
X184336420Y-41028864D01*
X184246465Y-41088140D01*
X184176585Y-41170130D01*
X184132314Y-41268342D01*
X184117157Y-41375000D01*
X184117157Y-42625000D01*
X184121995Y-42685673D01*
X184153864Y-42788580D01*
X184213140Y-42878535D01*
X184295130Y-42948415D01*
X184393342Y-42992686D01*
X184494000Y-43006990D01*
X184494000Y-45640408D01*
X184040408Y-46094000D01*
X183950000Y-46094000D01*
X183903470Y-46098562D01*
X183856921Y-46102635D01*
X183854366Y-46103377D01*
X183851717Y-46103637D01*
X183806978Y-46117145D01*
X183762088Y-46130186D01*
X183759724Y-46131411D01*
X183757178Y-46132180D01*
X183715925Y-46154115D01*
X183674412Y-46175633D01*
X183672332Y-46177294D01*
X183669984Y-46178542D01*
X183633787Y-46208064D01*
X183597234Y-46237243D01*
X183593532Y-46240894D01*
X183593455Y-46240957D01*
X183593396Y-46241028D01*
X183592204Y-46242204D01*
X183367251Y-46467157D01*
X183000000Y-46467157D01*
X182939327Y-46471995D01*
X182836420Y-46503864D01*
X182746465Y-46563140D01*
X182676585Y-46645130D01*
X182632314Y-46743342D01*
X182617157Y-46850000D01*
X182617157Y-47014071D01*
X182606964Y-47017149D01*
X182562089Y-47030186D01*
X182559727Y-47031411D01*
X182557178Y-47032180D01*
X182515946Y-47054103D01*
X182474412Y-47075632D01*
X182472328Y-47077296D01*
X182469984Y-47078542D01*
X182433790Y-47108061D01*
X182397235Y-47137243D01*
X182393534Y-47140893D01*
X182393455Y-47140957D01*
X182393395Y-47141030D01*
X182392204Y-47142204D01*
X178181000Y-51353408D01*
X178181000Y-44820905D01*
X181213602Y-44820905D01*
X181243186Y-44982094D01*
X181303514Y-45134467D01*
X181392290Y-45272220D01*
X181506132Y-45390106D01*
X181640703Y-45483635D01*
X181790878Y-45549245D01*
X181950936Y-45584436D01*
X182114781Y-45587868D01*
X182276173Y-45559410D01*
X182428963Y-45500147D01*
X182567333Y-45412335D01*
X182686011Y-45299319D01*
X182780478Y-45165404D01*
X182847134Y-45015691D01*
X182883442Y-44855883D01*
X182886055Y-44668699D01*
X182854224Y-44507939D01*
X182791774Y-44356423D01*
X182701083Y-44219923D01*
X182585607Y-44103638D01*
X182449743Y-44011996D01*
X182298667Y-43948490D01*
X182138133Y-43915537D01*
X181974256Y-43914393D01*
X181813277Y-43945101D01*
X181661329Y-44006492D01*
X181524199Y-44096228D01*
X181407110Y-44210889D01*
X181314523Y-44346110D01*
X181249963Y-44496739D01*
X181215890Y-44657039D01*
X181213602Y-44820905D01*
X178181000Y-44820905D01*
X178181000Y-40181000D01*
X201819000Y-40181000D01*
X201819000Y-79319000D01*
X201819000Y-79319000D01*
G37*
X201819000Y-79319000D02*
X200255912Y-79319000D01*
X200256062Y-79308255D01*
X200230122Y-79177247D01*
X200179230Y-79053773D01*
X200105324Y-78942536D01*
X200011219Y-78847772D01*
X199900500Y-78773091D01*
X199777385Y-78721338D01*
X199712247Y-78707967D01*
X200261298Y-78158916D01*
X200280088Y-78159310D01*
X200411610Y-78136119D01*
X200536123Y-78087824D01*
X200648884Y-78016264D01*
X200745598Y-77924164D01*
X200822581Y-77815034D01*
X200876901Y-77693029D01*
X200906489Y-77562797D01*
X200908619Y-77410257D01*
X200882679Y-77279249D01*
X200831787Y-77155775D01*
X200757881Y-77044538D01*
X200663776Y-76949774D01*
X200553057Y-76875093D01*
X200429942Y-76823340D01*
X200299118Y-76796486D01*
X200165571Y-76795553D01*
X200034385Y-76820578D01*
X199910559Y-76870607D01*
X199798808Y-76943735D01*
X199703390Y-77037176D01*
X199627938Y-77147370D01*
X199575326Y-77270122D01*
X199547560Y-77400754D01*
X199546983Y-77442047D01*
X198520029Y-78469001D01*
X196434593Y-78469001D01*
X196180585Y-78214993D01*
X196181029Y-78183225D01*
X196155089Y-78052217D01*
X196104197Y-77928743D01*
X196030291Y-77817506D01*
X195936186Y-77722742D01*
X195825467Y-77648061D01*
X195702352Y-77596308D01*
X195571528Y-77569454D01*
X195437981Y-77568521D01*
X195306795Y-77593546D01*
X195182969Y-77643575D01*
X195071218Y-77716703D01*
X194975800Y-77810144D01*
X194922168Y-77888471D01*
X194905089Y-77802217D01*
X194854197Y-77678743D01*
X194780291Y-77567506D01*
X194686186Y-77472742D01*
X194575467Y-77398061D01*
X194452352Y-77346308D01*
X194321528Y-77319454D01*
X194187981Y-77318521D01*
X194056795Y-77343546D01*
X193932969Y-77393575D01*
X193821218Y-77466703D01*
X193725800Y-77560144D01*
X193650348Y-77670338D01*
X193597736Y-77793090D01*
X193569970Y-77923722D01*
X193568105Y-78057260D01*
X193592213Y-78188617D01*
X193641377Y-78312790D01*
X193713722Y-78425048D01*
X193806495Y-78521117D01*
X193916160Y-78597336D01*
X194038541Y-78650803D01*
X194168977Y-78679481D01*
X194214850Y-78680442D01*
X194853408Y-79319000D01*
X178181000Y-79319000D01*
X178181000Y-56997522D01*
X178542574Y-57359096D01*
X178578688Y-57388760D01*
X178614497Y-57418807D01*
X178616828Y-57420089D01*
X178618885Y-57421778D01*
X178660104Y-57443880D01*
X178701035Y-57466382D01*
X178703568Y-57467186D01*
X178705917Y-57468445D01*
X178750626Y-57482113D01*
X178767527Y-57487475D01*
X178767527Y-57600740D01*
X178772365Y-57661413D01*
X178800870Y-57753458D01*
X178782684Y-57793802D01*
X178767527Y-57900460D01*
X178767527Y-59099340D01*
X178772365Y-59160013D01*
X178801336Y-59253563D01*
X178782684Y-59294942D01*
X178767527Y-59401600D01*
X178767527Y-60600480D01*
X178772365Y-60661153D01*
X178800870Y-60753198D01*
X178782684Y-60793542D01*
X178767527Y-60900200D01*
X178767527Y-62099080D01*
X178772365Y-62159753D01*
X178801336Y-62253303D01*
X178782684Y-62294682D01*
X178767527Y-62401340D01*
X178767527Y-63600220D01*
X178772365Y-63660893D01*
X178800870Y-63752938D01*
X178782684Y-63793282D01*
X178767527Y-63899940D01*
X178767527Y-65098820D01*
X178772365Y-65159493D01*
X178801336Y-65253043D01*
X178782684Y-65294422D01*
X178767527Y-65401080D01*
X178767527Y-66599960D01*
X178772365Y-66660633D01*
X178801336Y-66754183D01*
X178782684Y-66795562D01*
X178767527Y-66902220D01*
X178767527Y-68101100D01*
X178772365Y-68161773D01*
X178800870Y-68253818D01*
X178782684Y-68294162D01*
X178767527Y-68400820D01*
X178767527Y-69599700D01*
X178772365Y-69660373D01*
X178801336Y-69753923D01*
X178782684Y-69795302D01*
X178767527Y-69901960D01*
X178767527Y-70015471D01*
X178757272Y-70018567D01*
X178712458Y-70031587D01*
X178710099Y-70032810D01*
X178707548Y-70033580D01*
X178666260Y-70055533D01*
X178624782Y-70077033D01*
X178622702Y-70078694D01*
X178620354Y-70079942D01*
X178584157Y-70109464D01*
X178547604Y-70138643D01*
X178543902Y-70142294D01*
X178543825Y-70142357D01*
X178543766Y-70142428D01*
X178542574Y-70143604D01*
X178467573Y-70218605D01*
X178437909Y-70254719D01*
X178407862Y-70290528D01*
X178406580Y-70292859D01*
X178404891Y-70294916D01*
X178382808Y-70336100D01*
X178360287Y-70377066D01*
X178359482Y-70379604D01*
X178358225Y-70381948D01*
X178344566Y-70426623D01*
X178330426Y-70471198D01*
X178330129Y-70473844D01*
X178329352Y-70476386D01*
X178324632Y-70522852D01*
X178319418Y-70569336D01*
X178319382Y-70574537D01*
X178319372Y-70574635D01*
X178319381Y-70574726D01*
X178319369Y-70576401D01*
X178319369Y-72859441D01*
X178323931Y-72905971D01*
X178328004Y-72952520D01*
X178328746Y-72955075D01*
X178329006Y-72957724D01*
X178342514Y-73002463D01*
X178355555Y-73047353D01*
X178356780Y-73049717D01*
X178357549Y-73052263D01*
X178379484Y-73093516D01*
X178401002Y-73135029D01*
X178402663Y-73137109D01*
X178403911Y-73139457D01*
X178433433Y-73175654D01*
X178462612Y-73212207D01*
X178466263Y-73215909D01*
X178466326Y-73215986D01*
X178466397Y-73216045D01*
X178467573Y-73217237D01*
X178608132Y-73357796D01*
X178644246Y-73387460D01*
X178680055Y-73417507D01*
X178682386Y-73418789D01*
X178684443Y-73420478D01*
X178725627Y-73442561D01*
X178766593Y-73465082D01*
X178769131Y-73465887D01*
X178771475Y-73467144D01*
X178816150Y-73480803D01*
X178860725Y-73494943D01*
X178863371Y-73495240D01*
X178865913Y-73496017D01*
X178912383Y-73500737D01*
X178958863Y-73505951D01*
X178964063Y-73505987D01*
X178964161Y-73505997D01*
X178964252Y-73505988D01*
X178965928Y-73506000D01*
X183291897Y-73506000D01*
X183306495Y-73521117D01*
X183416160Y-73597336D01*
X183538541Y-73650803D01*
X183668977Y-73679481D01*
X183802498Y-73682278D01*
X183934020Y-73659087D01*
X184058533Y-73610792D01*
X184171294Y-73539232D01*
X184268008Y-73447132D01*
X184344991Y-73338002D01*
X184356563Y-73312009D01*
X184818105Y-73312009D01*
X184842213Y-73443366D01*
X184891377Y-73567539D01*
X184963722Y-73679797D01*
X185056495Y-73775866D01*
X185166160Y-73852085D01*
X185288541Y-73905552D01*
X185418977Y-73934230D01*
X185552498Y-73937027D01*
X185684020Y-73913836D01*
X185808533Y-73865541D01*
X185921294Y-73793981D01*
X185961178Y-73756000D01*
X189541897Y-73756000D01*
X189556495Y-73771117D01*
X189666160Y-73847336D01*
X189788541Y-73900803D01*
X189918977Y-73929481D01*
X190052498Y-73932278D01*
X190184020Y-73909087D01*
X190308533Y-73860792D01*
X190421294Y-73789232D01*
X190518008Y-73697132D01*
X190594991Y-73588002D01*
X190649311Y-73465997D01*
X190678899Y-73335765D01*
X190681029Y-73183225D01*
X190655089Y-73052217D01*
X190604197Y-72928743D01*
X190530291Y-72817506D01*
X190436186Y-72722742D01*
X190325467Y-72648061D01*
X190202352Y-72596308D01*
X190071528Y-72569454D01*
X189937981Y-72568521D01*
X189806795Y-72593546D01*
X189682969Y-72643575D01*
X189571218Y-72716703D01*
X189543343Y-72744000D01*
X185952580Y-72744000D01*
X185936186Y-72727491D01*
X185825467Y-72652810D01*
X185702352Y-72601057D01*
X185571528Y-72574203D01*
X185437981Y-72573270D01*
X185306795Y-72598295D01*
X185182969Y-72648324D01*
X185071218Y-72721452D01*
X184975800Y-72814893D01*
X184900348Y-72925087D01*
X184847736Y-73047839D01*
X184819970Y-73178471D01*
X184818105Y-73312009D01*
X184356563Y-73312009D01*
X184399311Y-73215997D01*
X184428899Y-73085765D01*
X184431029Y-72933225D01*
X184405089Y-72802217D01*
X184354197Y-72678743D01*
X184308897Y-72610561D01*
X184421294Y-72539232D01*
X184518008Y-72447132D01*
X184594991Y-72338002D01*
X184649311Y-72215997D01*
X184678899Y-72085765D01*
X184681029Y-71933225D01*
X184655089Y-71802217D01*
X184604197Y-71678743D01*
X184530291Y-71567506D01*
X184436186Y-71472742D01*
X184325467Y-71398061D01*
X184202352Y-71346308D01*
X184071528Y-71319454D01*
X183937981Y-71318521D01*
X183806795Y-71343546D01*
X183682969Y-71393575D01*
X183571218Y-71466703D01*
X183543343Y-71494000D01*
X181232473Y-71494000D01*
X181232473Y-71400560D01*
X181227635Y-71339887D01*
X181199130Y-71247842D01*
X181217316Y-71207498D01*
X181232473Y-71100840D01*
X181232473Y-69901960D01*
X181227635Y-69841287D01*
X181217098Y-69807260D01*
X182568105Y-69807260D01*
X182592213Y-69938617D01*
X182641377Y-70062790D01*
X182713722Y-70175048D01*
X182806495Y-70271117D01*
X182916160Y-70347336D01*
X183038541Y-70400803D01*
X183168977Y-70429481D01*
X183302498Y-70432278D01*
X183434020Y-70409087D01*
X183558533Y-70360792D01*
X183671294Y-70289232D01*
X183706191Y-70256000D01*
X189074980Y-70256000D01*
X189121510Y-70251438D01*
X189168059Y-70247365D01*
X189170614Y-70246623D01*
X189173263Y-70246363D01*
X189218002Y-70232855D01*
X189262892Y-70219814D01*
X189265256Y-70218589D01*
X189267802Y-70217820D01*
X189309055Y-70195885D01*
X189350568Y-70174367D01*
X189352648Y-70172706D01*
X189354996Y-70171458D01*
X189391193Y-70141936D01*
X189427746Y-70112757D01*
X189431448Y-70109106D01*
X189431525Y-70109043D01*
X189431584Y-70108972D01*
X189432776Y-70107796D01*
X189533708Y-70006864D01*
X189552498Y-70007258D01*
X189684020Y-69984067D01*
X189808533Y-69935772D01*
X189921294Y-69864212D01*
X190018008Y-69772112D01*
X190094991Y-69662982D01*
X190149311Y-69540977D01*
X190178899Y-69410745D01*
X190181029Y-69258205D01*
X190155089Y-69127197D01*
X190104197Y-69003723D01*
X190030291Y-68892486D01*
X189936186Y-68797722D01*
X189825467Y-68723041D01*
X189702352Y-68671288D01*
X189571528Y-68644434D01*
X189437981Y-68643501D01*
X189306795Y-68668526D01*
X189182969Y-68718555D01*
X189071218Y-68791683D01*
X188975800Y-68885124D01*
X188900348Y-68995318D01*
X188847736Y-69118070D01*
X188820969Y-69244000D01*
X183707296Y-69244000D01*
X183686186Y-69222742D01*
X183575467Y-69148061D01*
X183452352Y-69096308D01*
X183321528Y-69069454D01*
X183187981Y-69068521D01*
X183056795Y-69093546D01*
X182932969Y-69143575D01*
X182821218Y-69216703D01*
X182725800Y-69310144D01*
X182650348Y-69420338D01*
X182597736Y-69543090D01*
X182569970Y-69673722D01*
X182568105Y-69807260D01*
X181217098Y-69807260D01*
X181198664Y-69747737D01*
X181217316Y-69706358D01*
X181232473Y-69599700D01*
X181232473Y-68400820D01*
X181227635Y-68340147D01*
X181199130Y-68248102D01*
X181217316Y-68207758D01*
X181232473Y-68101100D01*
X181232473Y-67557260D01*
X184568105Y-67557260D01*
X184592213Y-67688617D01*
X184641377Y-67812790D01*
X184713722Y-67925048D01*
X184806495Y-68021117D01*
X184916160Y-68097336D01*
X185038541Y-68150803D01*
X185168977Y-68179481D01*
X185302498Y-68182278D01*
X185434020Y-68159087D01*
X185558533Y-68110792D01*
X185671294Y-68039232D01*
X185706191Y-68006000D01*
X190190238Y-68006000D01*
X191542294Y-69358056D01*
X191578408Y-69387720D01*
X191614217Y-69417767D01*
X191616548Y-69419049D01*
X191618605Y-69420738D01*
X191659789Y-69442821D01*
X191700755Y-69465342D01*
X191703293Y-69466147D01*
X191705637Y-69467404D01*
X191750312Y-69481063D01*
X191767247Y-69486435D01*
X191767247Y-69599700D01*
X191772085Y-69660373D01*
X191801056Y-69753923D01*
X191782404Y-69795302D01*
X191767247Y-69901960D01*
X191767247Y-71100840D01*
X191772085Y-71161513D01*
X191800590Y-71253558D01*
X191782404Y-71293902D01*
X191767247Y-71400560D01*
X191767247Y-72599440D01*
X191772085Y-72660113D01*
X191803954Y-72763020D01*
X191863230Y-72852975D01*
X191945220Y-72922855D01*
X192043432Y-72967126D01*
X192150090Y-72982283D01*
X193849350Y-72982283D01*
X193910023Y-72977445D01*
X194012930Y-72945576D01*
X194102885Y-72886300D01*
X194172765Y-72804310D01*
X194217036Y-72706098D01*
X194232193Y-72599440D01*
X194232193Y-72506000D01*
X194524673Y-72506000D01*
X194571203Y-72501438D01*
X194617752Y-72497365D01*
X194620307Y-72496623D01*
X194622956Y-72496363D01*
X194667695Y-72482855D01*
X194712585Y-72469814D01*
X194714949Y-72468589D01*
X194717495Y-72467820D01*
X194758748Y-72445885D01*
X194800261Y-72424367D01*
X194802341Y-72422706D01*
X194804689Y-72421458D01*
X194840886Y-72391936D01*
X194877439Y-72362757D01*
X194881141Y-72359106D01*
X194881218Y-72359043D01*
X194881277Y-72358972D01*
X194882469Y-72357796D01*
X195280220Y-71960045D01*
X195269197Y-71996098D01*
X195255057Y-72040673D01*
X195254760Y-72043319D01*
X195253983Y-72045861D01*
X195249263Y-72092327D01*
X195244049Y-72138811D01*
X195244013Y-72144012D01*
X195244003Y-72144110D01*
X195244012Y-72144201D01*
X195244000Y-72145876D01*
X195244000Y-74292321D01*
X195225800Y-74310144D01*
X195150348Y-74420338D01*
X195097736Y-74543090D01*
X195069970Y-74673722D01*
X195068105Y-74807260D01*
X195092213Y-74938617D01*
X195141377Y-75062790D01*
X195213722Y-75175048D01*
X195306495Y-75271117D01*
X195416160Y-75347336D01*
X195538541Y-75400803D01*
X195668977Y-75429481D01*
X195802498Y-75432278D01*
X195934020Y-75409087D01*
X196058533Y-75360792D01*
X196171294Y-75289232D01*
X196268008Y-75197132D01*
X196344991Y-75088002D01*
X196399311Y-74965997D01*
X196418999Y-74879340D01*
X196418999Y-75544698D01*
X196135086Y-75828611D01*
X196056795Y-75843546D01*
X195932969Y-75893575D01*
X195821218Y-75966703D01*
X195725800Y-76060144D01*
X195650348Y-76170338D01*
X195597736Y-76293090D01*
X195569970Y-76423722D01*
X195568105Y-76557260D01*
X195592213Y-76688617D01*
X195641377Y-76812790D01*
X195713722Y-76925048D01*
X195806495Y-77021117D01*
X195916160Y-77097336D01*
X196038541Y-77150803D01*
X196168977Y-77179481D01*
X196302498Y-77182278D01*
X196434020Y-77159087D01*
X196558533Y-77110792D01*
X196671294Y-77039232D01*
X196768008Y-76947132D01*
X196844991Y-76838002D01*
X196899311Y-76715997D01*
X196922538Y-76613765D01*
X197215734Y-76320568D01*
X197281856Y-76375269D01*
X197203563Y-76438218D01*
X197105586Y-76554982D01*
X197032155Y-76688552D01*
X196986067Y-76833842D01*
X196969076Y-76985317D01*
X196969000Y-76996221D01*
X196969000Y-77003779D01*
X196983874Y-77155476D01*
X197027930Y-77301395D01*
X197099489Y-77435978D01*
X197195825Y-77554098D01*
X197313270Y-77651257D01*
X197447350Y-77723754D01*
X197592958Y-77768827D01*
X197744548Y-77784760D01*
X197896345Y-77770945D01*
X198042568Y-77727910D01*
X198177647Y-77657292D01*
X198296437Y-77561782D01*
X198394414Y-77445018D01*
X198467845Y-77311448D01*
X198513933Y-77166158D01*
X198530924Y-77014683D01*
X198531000Y-77003779D01*
X198531000Y-76996221D01*
X198516126Y-76844524D01*
X198472070Y-76698605D01*
X198400511Y-76564022D01*
X198304175Y-76445902D01*
X198218144Y-76374731D01*
X198296437Y-76311782D01*
X198343244Y-76256000D01*
X200985002Y-76256000D01*
X201031532Y-76251438D01*
X201078081Y-76247365D01*
X201080636Y-76246623D01*
X201083285Y-76246363D01*
X201128024Y-76232855D01*
X201172914Y-76219814D01*
X201175278Y-76218589D01*
X201177824Y-76217820D01*
X201219077Y-76195885D01*
X201260590Y-76174367D01*
X201262670Y-76172706D01*
X201265018Y-76171458D01*
X201301215Y-76141936D01*
X201337768Y-76112757D01*
X201341470Y-76109106D01*
X201341547Y-76109043D01*
X201341606Y-76108972D01*
X201342798Y-76107796D01*
X201582797Y-75867797D01*
X201612461Y-75831683D01*
X201642508Y-75795874D01*
X201643790Y-75793543D01*
X201645479Y-75791486D01*
X201667581Y-75750267D01*
X201690083Y-75709336D01*
X201690887Y-75706803D01*
X201692146Y-75704454D01*
X201705814Y-75659745D01*
X201719944Y-75615204D01*
X201720241Y-75612557D01*
X201721018Y-75610015D01*
X201725737Y-75563555D01*
X201730952Y-75517066D01*
X201730988Y-75511865D01*
X201730998Y-75511767D01*
X201730989Y-75511676D01*
X201731001Y-75510001D01*
X201731001Y-66576839D01*
X201726443Y-66530350D01*
X201722366Y-66483760D01*
X201721624Y-66481205D01*
X201721364Y-66478556D01*
X201707852Y-66433803D01*
X201694815Y-66388928D01*
X201693590Y-66386566D01*
X201692821Y-66384017D01*
X201670898Y-66342785D01*
X201649369Y-66301251D01*
X201647705Y-66299167D01*
X201646459Y-66296823D01*
X201616940Y-66260629D01*
X201587758Y-66224074D01*
X201584108Y-66220373D01*
X201584044Y-66220294D01*
X201583971Y-66220234D01*
X201582797Y-66219043D01*
X200255958Y-64892204D01*
X200219844Y-64862540D01*
X200184035Y-64832493D01*
X200181704Y-64831211D01*
X200179647Y-64829522D01*
X200138463Y-64807439D01*
X200097497Y-64784918D01*
X200094959Y-64784113D01*
X200092615Y-64782856D01*
X200047940Y-64769197D01*
X200003365Y-64755057D01*
X200000719Y-64754760D01*
X199998177Y-64753983D01*
X199951711Y-64749263D01*
X199908174Y-64744380D01*
X201566997Y-63085557D01*
X201596661Y-63049443D01*
X201626708Y-63013634D01*
X201627990Y-63011303D01*
X201629679Y-63009246D01*
X201651781Y-62968027D01*
X201674283Y-62927096D01*
X201675087Y-62924563D01*
X201676346Y-62922214D01*
X201690014Y-62877505D01*
X201704144Y-62832964D01*
X201704441Y-62830317D01*
X201705218Y-62827775D01*
X201709937Y-62781315D01*
X201715152Y-62734826D01*
X201715188Y-62729625D01*
X201715198Y-62729527D01*
X201715189Y-62729436D01*
X201715201Y-62727761D01*
X201715201Y-61578201D01*
X201710639Y-61531671D01*
X201706566Y-61485122D01*
X201705824Y-61482567D01*
X201705564Y-61479918D01*
X201692052Y-61435165D01*
X201679015Y-61390290D01*
X201677790Y-61387928D01*
X201677021Y-61385379D01*
X201655077Y-61344108D01*
X201633568Y-61302613D01*
X201631907Y-61300533D01*
X201630659Y-61298185D01*
X201601137Y-61261988D01*
X201571958Y-61225435D01*
X201568307Y-61221733D01*
X201568244Y-61221656D01*
X201568173Y-61221597D01*
X201566997Y-61220405D01*
X201488796Y-61142204D01*
X201452682Y-61112540D01*
X201416873Y-61082493D01*
X201414542Y-61081211D01*
X201412485Y-61079522D01*
X201371301Y-61057439D01*
X201330335Y-61034918D01*
X201327797Y-61034113D01*
X201325453Y-61032856D01*
X201280778Y-61019197D01*
X201263843Y-61013825D01*
X201263843Y-60534800D01*
X201259005Y-60474127D01*
X201227136Y-60371220D01*
X201167860Y-60281265D01*
X201085870Y-60211385D01*
X200987658Y-60167114D01*
X200881000Y-60151957D01*
X200451749Y-60151957D01*
X198920875Y-58621083D01*
X198928899Y-58585765D01*
X198931029Y-58433225D01*
X198905089Y-58302217D01*
X198854197Y-58178743D01*
X198780291Y-58067506D01*
X198686186Y-57972742D01*
X198575467Y-57898061D01*
X198452352Y-57846308D01*
X198321528Y-57819454D01*
X198187981Y-57818521D01*
X198056795Y-57843546D01*
X197932969Y-57893575D01*
X197821218Y-57966703D01*
X197725800Y-58060144D01*
X197650348Y-58170338D01*
X197597736Y-58293090D01*
X197569970Y-58423722D01*
X197568105Y-58557260D01*
X197592213Y-58688617D01*
X197641377Y-58812790D01*
X197691276Y-58890219D01*
X197682969Y-58893575D01*
X197571218Y-58966703D01*
X197530999Y-59006089D01*
X197530999Y-56749648D01*
X197592958Y-56768827D01*
X197744548Y-56784760D01*
X197896345Y-56770945D01*
X198042568Y-56727910D01*
X198177647Y-56657292D01*
X198296437Y-56561782D01*
X198394414Y-56445018D01*
X198467845Y-56311448D01*
X198513933Y-56166158D01*
X198530924Y-56014683D01*
X198531000Y-56003779D01*
X198531000Y-55996221D01*
X198516126Y-55844524D01*
X198472070Y-55698605D01*
X198400511Y-55564022D01*
X198304175Y-55445902D01*
X198218144Y-55374731D01*
X198296437Y-55311782D01*
X198394414Y-55195018D01*
X198467845Y-55061448D01*
X198513933Y-54916158D01*
X198530924Y-54764683D01*
X198531000Y-54753779D01*
X198531000Y-54746221D01*
X198516126Y-54594524D01*
X198472070Y-54448605D01*
X198400511Y-54314022D01*
X198304175Y-54195902D01*
X198186730Y-54098743D01*
X198052650Y-54026246D01*
X197907042Y-53981173D01*
X197755452Y-53965240D01*
X197603655Y-53979055D01*
X197530999Y-54000438D01*
X197530999Y-53980305D01*
X198918152Y-52593152D01*
X198950708Y-52553518D01*
X198983764Y-52514123D01*
X198985174Y-52511558D01*
X198987028Y-52509301D01*
X199011286Y-52464060D01*
X199036040Y-52419033D01*
X199036924Y-52416247D01*
X199038306Y-52413669D01*
X199053326Y-52364541D01*
X199068851Y-52315600D01*
X199069177Y-52312695D01*
X199070032Y-52309898D01*
X199075224Y-52258788D01*
X199080947Y-52207764D01*
X199080987Y-52202052D01*
X199080998Y-52201941D01*
X199080988Y-52201838D01*
X199081001Y-52200001D01*
X199081001Y-50459316D01*
X199075996Y-50408269D01*
X199071514Y-50357040D01*
X199070697Y-50354228D01*
X199070412Y-50351322D01*
X199055570Y-50302162D01*
X199041239Y-50252836D01*
X199039895Y-50250243D01*
X199039049Y-50247441D01*
X199014924Y-50202069D01*
X198991302Y-50156497D01*
X198989478Y-50154212D01*
X198988105Y-50151630D01*
X198955664Y-50111854D01*
X198923604Y-50071692D01*
X198919588Y-50067620D01*
X198919522Y-50067539D01*
X198919447Y-50067477D01*
X198918153Y-50066165D01*
X198708836Y-49856849D01*
X198669180Y-49824275D01*
X198629807Y-49791237D01*
X198627245Y-49789828D01*
X198624986Y-49787973D01*
X198579704Y-49763693D01*
X198534717Y-49738961D01*
X198531933Y-49738078D01*
X198529354Y-49736695D01*
X198480211Y-49721671D01*
X198431284Y-49706150D01*
X198428379Y-49705824D01*
X198425582Y-49704969D01*
X198374472Y-49699777D01*
X198323448Y-49694054D01*
X198317736Y-49694014D01*
X198317625Y-49694003D01*
X198317522Y-49694013D01*
X198315685Y-49694000D01*
X198301876Y-49694000D01*
X198218144Y-49624731D01*
X198296437Y-49561782D01*
X198394414Y-49445018D01*
X198467845Y-49311448D01*
X198513933Y-49166158D01*
X198530924Y-49014683D01*
X198531000Y-49003779D01*
X198531000Y-48996221D01*
X198516126Y-48844524D01*
X198472070Y-48698605D01*
X198400511Y-48564022D01*
X198304175Y-48445902D01*
X198186730Y-48348743D01*
X198052650Y-48276246D01*
X197907042Y-48231173D01*
X197755452Y-48215240D01*
X197603655Y-48229055D01*
X197457432Y-48272090D01*
X197322353Y-48342708D01*
X197203563Y-48438218D01*
X197105586Y-48554982D01*
X197032155Y-48688552D01*
X196986067Y-48833842D01*
X196969076Y-48985317D01*
X196969000Y-48996221D01*
X196969000Y-49003779D01*
X196983874Y-49155476D01*
X197027930Y-49301395D01*
X197099489Y-49435978D01*
X197195825Y-49554098D01*
X197281856Y-49625269D01*
X197203563Y-49688218D01*
X197105586Y-49804982D01*
X197032155Y-49938552D01*
X196986067Y-50083842D01*
X196969076Y-50235317D01*
X196969000Y-50246221D01*
X196969000Y-50253779D01*
X196983874Y-50405476D01*
X197027930Y-50551395D01*
X197099489Y-50685978D01*
X197195825Y-50804098D01*
X197313270Y-50901257D01*
X197447350Y-50973754D01*
X197592958Y-51018827D01*
X197744548Y-51034760D01*
X197896345Y-51020945D01*
X197969001Y-50999562D01*
X197969001Y-51969699D01*
X196756000Y-53182700D01*
X196756000Y-44500000D01*
X196751442Y-44453511D01*
X196747365Y-44406921D01*
X196746623Y-44404366D01*
X196746363Y-44401717D01*
X196732851Y-44356964D01*
X196719814Y-44312089D01*
X196718589Y-44309727D01*
X196717820Y-44307178D01*
X196695886Y-44265926D01*
X196674368Y-44224413D01*
X196672706Y-44222331D01*
X196671458Y-44219984D01*
X196641921Y-44183768D01*
X196612757Y-44147235D01*
X196609107Y-44143534D01*
X196609043Y-44143455D01*
X196608970Y-44143395D01*
X196607796Y-44142204D01*
X196248435Y-43782843D01*
X196750000Y-43782843D01*
X196810673Y-43778005D01*
X196913580Y-43746136D01*
X197003535Y-43686860D01*
X197073415Y-43604870D01*
X197117686Y-43506658D01*
X197132843Y-43400000D01*
X197132843Y-42100000D01*
X197128005Y-42039327D01*
X197096136Y-41936420D01*
X197036860Y-41846465D01*
X196954870Y-41776585D01*
X196856658Y-41732314D01*
X196750000Y-41717157D01*
X196050000Y-41717157D01*
X195989327Y-41721995D01*
X195886420Y-41753864D01*
X195796465Y-41813140D01*
X195726585Y-41895130D01*
X195682314Y-41993342D01*
X195667157Y-42100000D01*
X195667157Y-43221839D01*
X195640301Y-43207439D01*
X195599335Y-43184918D01*
X195596797Y-43184113D01*
X195594453Y-43182856D01*
X195549778Y-43169197D01*
X195505203Y-43155057D01*
X195502557Y-43154760D01*
X195500015Y-43153983D01*
X195453549Y-43149263D01*
X195407065Y-43144049D01*
X195401864Y-43144013D01*
X195401766Y-43144003D01*
X195401675Y-43144012D01*
X195400000Y-43144000D01*
X195309592Y-43144000D01*
X195232843Y-43067251D01*
X195232843Y-42100000D01*
X195228005Y-42039327D01*
X195196136Y-41936420D01*
X195136860Y-41846465D01*
X195054870Y-41776585D01*
X194956658Y-41732314D01*
X194850000Y-41717157D01*
X194150000Y-41717157D01*
X194089327Y-41721995D01*
X193986420Y-41753864D01*
X193896465Y-41813140D01*
X193826585Y-41895130D01*
X193782314Y-41993342D01*
X193767157Y-42100000D01*
X193767157Y-42194000D01*
X193232843Y-42194000D01*
X193232843Y-42100000D01*
X193228005Y-42039327D01*
X193196136Y-41936420D01*
X193136860Y-41846465D01*
X193054870Y-41776585D01*
X192956658Y-41732314D01*
X192850000Y-41717157D01*
X192150000Y-41717157D01*
X192089327Y-41721995D01*
X191986420Y-41753864D01*
X191896465Y-41813140D01*
X191826585Y-41895130D01*
X191782314Y-41993342D01*
X191767157Y-42100000D01*
X191767157Y-43400000D01*
X191771995Y-43460673D01*
X191803864Y-43563580D01*
X191863140Y-43653535D01*
X191945130Y-43723415D01*
X192043342Y-43767686D01*
X192150000Y-43782843D01*
X192850000Y-43782843D01*
X192910673Y-43778005D01*
X193013580Y-43746136D01*
X193103535Y-43686860D01*
X193173415Y-43604870D01*
X193217686Y-43506658D01*
X193232843Y-43400000D01*
X193232843Y-43306000D01*
X193767157Y-43306000D01*
X193767157Y-43400000D01*
X193771995Y-43460673D01*
X193803864Y-43563580D01*
X193863140Y-43653535D01*
X193945130Y-43723415D01*
X194043342Y-43767686D01*
X194150000Y-43782843D01*
X194517251Y-43782843D01*
X194742204Y-44007796D01*
X194778318Y-44037460D01*
X194814127Y-44067507D01*
X194816458Y-44068789D01*
X194818515Y-44070478D01*
X194859699Y-44092561D01*
X194900665Y-44115082D01*
X194903203Y-44115887D01*
X194905547Y-44117144D01*
X194950222Y-44130803D01*
X194994797Y-44144943D01*
X194997443Y-44145240D01*
X194999985Y-44146017D01*
X195046451Y-44150737D01*
X195092935Y-44155951D01*
X195098136Y-44155987D01*
X195098234Y-44155997D01*
X195098325Y-44155988D01*
X195100000Y-44156000D01*
X195190408Y-44156000D01*
X195744000Y-44709592D01*
X195744000Y-57278408D01*
X195111636Y-56646044D01*
X195075522Y-56616380D01*
X195039713Y-56586333D01*
X195037382Y-56585051D01*
X195035325Y-56583362D01*
X194994141Y-56561279D01*
X194953175Y-56538758D01*
X194950637Y-56537953D01*
X194948293Y-56536696D01*
X194903618Y-56523037D01*
X194859043Y-56508897D01*
X194856397Y-56508600D01*
X194853855Y-56507823D01*
X194807389Y-56503103D01*
X194760905Y-56497889D01*
X194755704Y-56497853D01*
X194755606Y-56497843D01*
X194755515Y-56497852D01*
X194753840Y-56497840D01*
X194232193Y-56497840D01*
X194232193Y-56404400D01*
X194227355Y-56343727D01*
X194197917Y-56248671D01*
X194217036Y-56206258D01*
X194232193Y-56099600D01*
X194232193Y-54900720D01*
X194227355Y-54840047D01*
X194195486Y-54737140D01*
X194136210Y-54647185D01*
X194054220Y-54577305D01*
X193956008Y-54533034D01*
X193849350Y-54517877D01*
X192150090Y-54517877D01*
X192089417Y-54522715D01*
X191986510Y-54554584D01*
X191896555Y-54613860D01*
X191826675Y-54695850D01*
X191782404Y-54794062D01*
X191767247Y-54900720D01*
X191767247Y-56099600D01*
X191772085Y-56160273D01*
X191801523Y-56255329D01*
X191782404Y-56297742D01*
X191767247Y-56404400D01*
X191767247Y-57603280D01*
X191772085Y-57663953D01*
X191800124Y-57754492D01*
X191782404Y-57793802D01*
X191767247Y-57900460D01*
X191767247Y-59099340D01*
X191772085Y-59160013D01*
X191801056Y-59253563D01*
X191782404Y-59294942D01*
X191767247Y-59401600D01*
X191767247Y-60600480D01*
X191772085Y-60661153D01*
X191800590Y-60753198D01*
X191782404Y-60793542D01*
X191767247Y-60900200D01*
X191767247Y-62099080D01*
X191772085Y-62159753D01*
X191801056Y-62253303D01*
X191782404Y-62294682D01*
X191767247Y-62401340D01*
X191767247Y-63600220D01*
X191772085Y-63660893D01*
X191800590Y-63752938D01*
X191782404Y-63793282D01*
X191767247Y-63899940D01*
X191767247Y-65098820D01*
X191772085Y-65159493D01*
X191801056Y-65253043D01*
X191782404Y-65294422D01*
X191767247Y-65401080D01*
X191767247Y-66599960D01*
X191772085Y-66660633D01*
X191801056Y-66754183D01*
X191782404Y-66795562D01*
X191767247Y-66902220D01*
X191767247Y-68101100D01*
X191771642Y-68156220D01*
X190757626Y-67142204D01*
X190721512Y-67112540D01*
X190685703Y-67082493D01*
X190683372Y-67081211D01*
X190681315Y-67079522D01*
X190640131Y-67057439D01*
X190599165Y-67034918D01*
X190596627Y-67034113D01*
X190594283Y-67032856D01*
X190549608Y-67019197D01*
X190505033Y-67005057D01*
X190502387Y-67004760D01*
X190499845Y-67003983D01*
X190453379Y-66999263D01*
X190406895Y-66994049D01*
X190401694Y-66994013D01*
X190401596Y-66994003D01*
X190401505Y-66994012D01*
X190399830Y-66994000D01*
X185707296Y-66994000D01*
X185686186Y-66972742D01*
X185575467Y-66898061D01*
X185452352Y-66846308D01*
X185321528Y-66819454D01*
X185187981Y-66818521D01*
X185056795Y-66843546D01*
X184932969Y-66893575D01*
X184821218Y-66966703D01*
X184725800Y-67060144D01*
X184650348Y-67170338D01*
X184597736Y-67293090D01*
X184569970Y-67423722D01*
X184568105Y-67557260D01*
X181232473Y-67557260D01*
X181232473Y-66902220D01*
X181227635Y-66841547D01*
X181198664Y-66747997D01*
X181217316Y-66706618D01*
X181232473Y-66599960D01*
X181232473Y-65401080D01*
X181227635Y-65340407D01*
X181198664Y-65246857D01*
X181217316Y-65205478D01*
X181232473Y-65098820D01*
X181232473Y-63899940D01*
X181227635Y-63839267D01*
X181199130Y-63747222D01*
X181217316Y-63706878D01*
X181232473Y-63600220D01*
X181232473Y-62401340D01*
X181227635Y-62340667D01*
X181198664Y-62247117D01*
X181217316Y-62205738D01*
X181232473Y-62099080D01*
X181232473Y-60900200D01*
X181227635Y-60839527D01*
X181199130Y-60747482D01*
X181217316Y-60707138D01*
X181232473Y-60600480D01*
X181232473Y-59401600D01*
X181227635Y-59340927D01*
X181198664Y-59247377D01*
X181217316Y-59205998D01*
X181232473Y-59099340D01*
X181232473Y-57900460D01*
X181227635Y-57839787D01*
X181199130Y-57747742D01*
X181217316Y-57707398D01*
X181232473Y-57600740D01*
X181232473Y-56401860D01*
X181227635Y-56341187D01*
X181215648Y-56302480D01*
X183444000Y-58530833D01*
X183444000Y-62250000D01*
X183449009Y-62301089D01*
X183453488Y-62352277D01*
X183454304Y-62355085D01*
X183454589Y-62357994D01*
X183469440Y-62407183D01*
X183483762Y-62456480D01*
X183485106Y-62459073D01*
X183485952Y-62461875D01*
X183510077Y-62507247D01*
X183533699Y-62552819D01*
X183535523Y-62555104D01*
X183536896Y-62557686D01*
X183569362Y-62597493D01*
X183601398Y-62637624D01*
X183605408Y-62641690D01*
X183605479Y-62641777D01*
X183605560Y-62641844D01*
X183606849Y-62643151D01*
X183828703Y-62865005D01*
X183842213Y-62938617D01*
X183891377Y-63062790D01*
X183963722Y-63175048D01*
X184056495Y-63271117D01*
X184166160Y-63347336D01*
X184288541Y-63400803D01*
X184418977Y-63429481D01*
X184552498Y-63432278D01*
X184684020Y-63409087D01*
X184808533Y-63360792D01*
X184921294Y-63289232D01*
X185018008Y-63197132D01*
X185094991Y-63088002D01*
X185149311Y-62965997D01*
X185178899Y-62835765D01*
X185181029Y-62683225D01*
X185155089Y-62552217D01*
X185104197Y-62428743D01*
X185030291Y-62317506D01*
X184936186Y-62222742D01*
X184825467Y-62148061D01*
X184702352Y-62096308D01*
X184614597Y-62078295D01*
X184556000Y-62019698D01*
X184556000Y-58300530D01*
X184550991Y-58249441D01*
X184546512Y-58198253D01*
X184545696Y-58195445D01*
X184545411Y-58192536D01*
X184530560Y-58143347D01*
X184516238Y-58094050D01*
X184514894Y-58091457D01*
X184514048Y-58088655D01*
X184489923Y-58043283D01*
X184466301Y-57997711D01*
X184464477Y-57995426D01*
X184463104Y-57992844D01*
X184430638Y-57953037D01*
X184398602Y-57912906D01*
X184394589Y-57908836D01*
X184394521Y-57908753D01*
X184394444Y-57908689D01*
X184393151Y-57907378D01*
X181592781Y-55107009D01*
X181553125Y-55074435D01*
X181513752Y-55041397D01*
X181511190Y-55039988D01*
X181508931Y-55038133D01*
X181463649Y-55013853D01*
X181418662Y-54989121D01*
X181415878Y-54988238D01*
X181413299Y-54986855D01*
X181364156Y-54971831D01*
X181315229Y-54956310D01*
X181312324Y-54955984D01*
X181309527Y-54955129D01*
X181258417Y-54949937D01*
X181232473Y-54947027D01*
X181232473Y-54900720D01*
X181227635Y-54840047D01*
X181195766Y-54737140D01*
X181136490Y-54647185D01*
X181054500Y-54577305D01*
X180956288Y-54533034D01*
X180849630Y-54517877D01*
X179331369Y-54517877D01*
X179331369Y-53351711D01*
X179557807Y-53125273D01*
X179587471Y-53089159D01*
X179617518Y-53053350D01*
X179618800Y-53051019D01*
X179620489Y-53048962D01*
X179642591Y-53007743D01*
X179665093Y-52966812D01*
X179665897Y-52964279D01*
X179667156Y-52961930D01*
X179680824Y-52917221D01*
X179694954Y-52872680D01*
X179695251Y-52870033D01*
X179696028Y-52867491D01*
X179700747Y-52821031D01*
X179705962Y-52774542D01*
X179705998Y-52769341D01*
X179706008Y-52769243D01*
X179705999Y-52769152D01*
X179706011Y-52767477D01*
X179706011Y-52580829D01*
X180267397Y-52019443D01*
X180267397Y-53103670D01*
X180272235Y-53164343D01*
X180304104Y-53267250D01*
X180363380Y-53357205D01*
X180445370Y-53427085D01*
X180543582Y-53471356D01*
X180650240Y-53486513D01*
X181849120Y-53486513D01*
X181900704Y-53482400D01*
X181949050Y-53523605D01*
X182047262Y-53567876D01*
X182153920Y-53583033D01*
X183352800Y-53583033D01*
X183413473Y-53578195D01*
X183505518Y-53549690D01*
X183545862Y-53567876D01*
X183652520Y-53583033D01*
X184851400Y-53583033D01*
X184912073Y-53578195D01*
X185004118Y-53549690D01*
X185044462Y-53567876D01*
X185151120Y-53583033D01*
X186350000Y-53583033D01*
X186410673Y-53578195D01*
X186502718Y-53549690D01*
X186543062Y-53567876D01*
X186649720Y-53583033D01*
X187848600Y-53583033D01*
X187909273Y-53578195D01*
X188001318Y-53549690D01*
X188041662Y-53567876D01*
X188148320Y-53583033D01*
X189347200Y-53583033D01*
X189407873Y-53578195D01*
X189499918Y-53549690D01*
X189540262Y-53567876D01*
X189646920Y-53583033D01*
X190845800Y-53583033D01*
X190906473Y-53578195D01*
X191009380Y-53546326D01*
X191099335Y-53487050D01*
X191169215Y-53405060D01*
X191213486Y-53306848D01*
X191228643Y-53200190D01*
X191228643Y-51500930D01*
X191223805Y-51440257D01*
X191191936Y-51337350D01*
X191132660Y-51247395D01*
X191050670Y-51177515D01*
X190952458Y-51133244D01*
X190845800Y-51118087D01*
X189646920Y-51118087D01*
X189586247Y-51122925D01*
X189494202Y-51151430D01*
X189453858Y-51133244D01*
X189347200Y-51118087D01*
X188148320Y-51118087D01*
X188087647Y-51122925D01*
X187995602Y-51151430D01*
X187955258Y-51133244D01*
X187848600Y-51118087D01*
X186649720Y-51118087D01*
X186589047Y-51122925D01*
X186497002Y-51151430D01*
X186456658Y-51133244D01*
X186350000Y-51118087D01*
X185151120Y-51118087D01*
X185090447Y-51122925D01*
X184998402Y-51151430D01*
X184958058Y-51133244D01*
X184851400Y-51118087D01*
X183652520Y-51118087D01*
X183591847Y-51122925D01*
X183499802Y-51151430D01*
X183459458Y-51133244D01*
X183352800Y-51118087D01*
X182646089Y-51118087D01*
X182652766Y-51112757D01*
X182656468Y-51109106D01*
X182656545Y-51109043D01*
X182656604Y-51108972D01*
X182657796Y-51107796D01*
X185232749Y-48532843D01*
X185600000Y-48532843D01*
X185660673Y-48528005D01*
X185763580Y-48496136D01*
X185853535Y-48436860D01*
X185923415Y-48354870D01*
X185967686Y-48256658D01*
X185982843Y-48150000D01*
X185982843Y-46850000D01*
X185978005Y-46789327D01*
X185946136Y-46686420D01*
X185886860Y-46596465D01*
X185804870Y-46526585D01*
X185706658Y-46482314D01*
X185600000Y-46467157D01*
X185098435Y-46467157D01*
X185357796Y-46207796D01*
X185387460Y-46171682D01*
X185417507Y-46135873D01*
X185418789Y-46133542D01*
X185420478Y-46131485D01*
X185442561Y-46090301D01*
X185465082Y-46049335D01*
X185465887Y-46046797D01*
X185467144Y-46044453D01*
X185480803Y-45999778D01*
X185494943Y-45955203D01*
X185495240Y-45952557D01*
X185496017Y-45950015D01*
X185500737Y-45903549D01*
X185505951Y-45857065D01*
X185505987Y-45851864D01*
X185505997Y-45851766D01*
X185505988Y-45851675D01*
X185506000Y-45850000D01*
X185506000Y-44820905D01*
X185612882Y-44820905D01*
X185642466Y-44982094D01*
X185702794Y-45134467D01*
X185791570Y-45272220D01*
X185905412Y-45390106D01*
X186039983Y-45483635D01*
X186190158Y-45549245D01*
X186350216Y-45584436D01*
X186514061Y-45587868D01*
X186675453Y-45559410D01*
X186828243Y-45500147D01*
X186966613Y-45412335D01*
X187085291Y-45299319D01*
X187179758Y-45165404D01*
X187246414Y-45015691D01*
X187282722Y-44855883D01*
X187285335Y-44668699D01*
X187253504Y-44507939D01*
X187191054Y-44356423D01*
X187100363Y-44219923D01*
X186984887Y-44103638D01*
X186849023Y-44011996D01*
X186697947Y-43948490D01*
X186537413Y-43915537D01*
X186373536Y-43914393D01*
X186212557Y-43945101D01*
X186060609Y-44006492D01*
X185923479Y-44096228D01*
X185806390Y-44210889D01*
X185713803Y-44346110D01*
X185649243Y-44496739D01*
X185615170Y-44657039D01*
X185612882Y-44820905D01*
X185506000Y-44820905D01*
X185506000Y-43007365D01*
X185560673Y-43003005D01*
X185663580Y-42971136D01*
X185753535Y-42911860D01*
X185823415Y-42829870D01*
X185867686Y-42731658D01*
X185882843Y-42625000D01*
X185882843Y-41375000D01*
X185878005Y-41314327D01*
X185846136Y-41211420D01*
X185786860Y-41121465D01*
X185704870Y-41051585D01*
X185606658Y-41007314D01*
X185500000Y-40992157D01*
X184500000Y-40992157D01*
X184439327Y-40996995D01*
X184336420Y-41028864D01*
X184246465Y-41088140D01*
X184176585Y-41170130D01*
X184132314Y-41268342D01*
X184117157Y-41375000D01*
X184117157Y-42625000D01*
X184121995Y-42685673D01*
X184153864Y-42788580D01*
X184213140Y-42878535D01*
X184295130Y-42948415D01*
X184393342Y-42992686D01*
X184494000Y-43006990D01*
X184494000Y-45640408D01*
X184040408Y-46094000D01*
X183950000Y-46094000D01*
X183903470Y-46098562D01*
X183856921Y-46102635D01*
X183854366Y-46103377D01*
X183851717Y-46103637D01*
X183806978Y-46117145D01*
X183762088Y-46130186D01*
X183759724Y-46131411D01*
X183757178Y-46132180D01*
X183715925Y-46154115D01*
X183674412Y-46175633D01*
X183672332Y-46177294D01*
X183669984Y-46178542D01*
X183633787Y-46208064D01*
X183597234Y-46237243D01*
X183593532Y-46240894D01*
X183593455Y-46240957D01*
X183593396Y-46241028D01*
X183592204Y-46242204D01*
X183367251Y-46467157D01*
X183000000Y-46467157D01*
X182939327Y-46471995D01*
X182836420Y-46503864D01*
X182746465Y-46563140D01*
X182676585Y-46645130D01*
X182632314Y-46743342D01*
X182617157Y-46850000D01*
X182617157Y-47014071D01*
X182606964Y-47017149D01*
X182562089Y-47030186D01*
X182559727Y-47031411D01*
X182557178Y-47032180D01*
X182515946Y-47054103D01*
X182474412Y-47075632D01*
X182472328Y-47077296D01*
X182469984Y-47078542D01*
X182433790Y-47108061D01*
X182397235Y-47137243D01*
X182393534Y-47140893D01*
X182393455Y-47140957D01*
X182393395Y-47141030D01*
X182392204Y-47142204D01*
X178181000Y-51353408D01*
X178181000Y-44820905D01*
X181213602Y-44820905D01*
X181243186Y-44982094D01*
X181303514Y-45134467D01*
X181392290Y-45272220D01*
X181506132Y-45390106D01*
X181640703Y-45483635D01*
X181790878Y-45549245D01*
X181950936Y-45584436D01*
X182114781Y-45587868D01*
X182276173Y-45559410D01*
X182428963Y-45500147D01*
X182567333Y-45412335D01*
X182686011Y-45299319D01*
X182780478Y-45165404D01*
X182847134Y-45015691D01*
X182883442Y-44855883D01*
X182886055Y-44668699D01*
X182854224Y-44507939D01*
X182791774Y-44356423D01*
X182701083Y-44219923D01*
X182585607Y-44103638D01*
X182449743Y-44011996D01*
X182298667Y-43948490D01*
X182138133Y-43915537D01*
X181974256Y-43914393D01*
X181813277Y-43945101D01*
X181661329Y-44006492D01*
X181524199Y-44096228D01*
X181407110Y-44210889D01*
X181314523Y-44346110D01*
X181249963Y-44496739D01*
X181215890Y-44657039D01*
X181213602Y-44820905D01*
X178181000Y-44820905D01*
X178181000Y-40181000D01*
X201819000Y-40181000D01*
X201819000Y-79319000D01*
G36*
X199736157Y-68754000D02*
X199740995Y-68814673D01*
X199772864Y-68917580D01*
X199832140Y-69007535D01*
X199914130Y-69077415D01*
X199994000Y-69113418D01*
X199994000Y-72267157D01*
X199600000Y-72267157D01*
X199539327Y-72271995D01*
X199436420Y-72303864D01*
X199346465Y-72363140D01*
X199276585Y-72445130D01*
X199232314Y-72543342D01*
X199217157Y-72650000D01*
X199217157Y-73350000D01*
X199221995Y-73410673D01*
X199253864Y-73513580D01*
X199313140Y-73603535D01*
X199395130Y-73673415D01*
X199493342Y-73717686D01*
X199600000Y-73732843D01*
X200719001Y-73732843D01*
X200719001Y-75244000D01*
X198343403Y-75244000D01*
X198304175Y-75195902D01*
X198218144Y-75124731D01*
X198296437Y-75061782D01*
X198394414Y-74945018D01*
X198467845Y-74811448D01*
X198513933Y-74666158D01*
X198530924Y-74514683D01*
X198531000Y-74503779D01*
X198531000Y-74496221D01*
X198516126Y-74344524D01*
X198472070Y-74198605D01*
X198400511Y-74064022D01*
X198304175Y-73945902D01*
X198218144Y-73874731D01*
X198296437Y-73811782D01*
X198394414Y-73695018D01*
X198467845Y-73561448D01*
X198513933Y-73416158D01*
X198530924Y-73264683D01*
X198531000Y-73253779D01*
X198531000Y-73246221D01*
X198516126Y-73094524D01*
X198472070Y-72948605D01*
X198400511Y-72814022D01*
X198304175Y-72695902D01*
X198218144Y-72624731D01*
X198296437Y-72561782D01*
X198394414Y-72445018D01*
X198467845Y-72311448D01*
X198513933Y-72166158D01*
X198530924Y-72014683D01*
X198531000Y-72003779D01*
X198531000Y-71996221D01*
X198516126Y-71844524D01*
X198472070Y-71698605D01*
X198400511Y-71564022D01*
X198304175Y-71445902D01*
X198211601Y-71369318D01*
X198233584Y-71360792D01*
X198346345Y-71289232D01*
X198443059Y-71197132D01*
X198520042Y-71088002D01*
X198574362Y-70965997D01*
X198603950Y-70835765D01*
X198606080Y-70683225D01*
X198580140Y-70552217D01*
X198529248Y-70428743D01*
X198455342Y-70317506D01*
X198431051Y-70293045D01*
X198431051Y-70058779D01*
X199736157Y-68753673D01*
X199736157Y-68754000D01*
X199736157Y-68754000D01*
G37*
X199736157Y-68754000D02*
X199740995Y-68814673D01*
X199772864Y-68917580D01*
X199832140Y-69007535D01*
X199914130Y-69077415D01*
X199994000Y-69113418D01*
X199994000Y-72267157D01*
X199600000Y-72267157D01*
X199539327Y-72271995D01*
X199436420Y-72303864D01*
X199346465Y-72363140D01*
X199276585Y-72445130D01*
X199232314Y-72543342D01*
X199217157Y-72650000D01*
X199217157Y-73350000D01*
X199221995Y-73410673D01*
X199253864Y-73513580D01*
X199313140Y-73603535D01*
X199395130Y-73673415D01*
X199493342Y-73717686D01*
X199600000Y-73732843D01*
X200719001Y-73732843D01*
X200719001Y-75244000D01*
X198343403Y-75244000D01*
X198304175Y-75195902D01*
X198218144Y-75124731D01*
X198296437Y-75061782D01*
X198394414Y-74945018D01*
X198467845Y-74811448D01*
X198513933Y-74666158D01*
X198530924Y-74514683D01*
X198531000Y-74503779D01*
X198531000Y-74496221D01*
X198516126Y-74344524D01*
X198472070Y-74198605D01*
X198400511Y-74064022D01*
X198304175Y-73945902D01*
X198218144Y-73874731D01*
X198296437Y-73811782D01*
X198394414Y-73695018D01*
X198467845Y-73561448D01*
X198513933Y-73416158D01*
X198530924Y-73264683D01*
X198531000Y-73253779D01*
X198531000Y-73246221D01*
X198516126Y-73094524D01*
X198472070Y-72948605D01*
X198400511Y-72814022D01*
X198304175Y-72695902D01*
X198218144Y-72624731D01*
X198296437Y-72561782D01*
X198394414Y-72445018D01*
X198467845Y-72311448D01*
X198513933Y-72166158D01*
X198530924Y-72014683D01*
X198531000Y-72003779D01*
X198531000Y-71996221D01*
X198516126Y-71844524D01*
X198472070Y-71698605D01*
X198400511Y-71564022D01*
X198304175Y-71445902D01*
X198211601Y-71369318D01*
X198233584Y-71360792D01*
X198346345Y-71289232D01*
X198443059Y-71197132D01*
X198520042Y-71088002D01*
X198574362Y-70965997D01*
X198603950Y-70835765D01*
X198606080Y-70683225D01*
X198580140Y-70552217D01*
X198529248Y-70428743D01*
X198455342Y-70317506D01*
X198431051Y-70293045D01*
X198431051Y-70058779D01*
X199736157Y-68753673D01*
X199736157Y-68754000D01*
G36*
X197567255Y-69491391D02*
X197537591Y-69527505D01*
X197530999Y-69535361D01*
X197530999Y-68249648D01*
X197592958Y-68268827D01*
X197744548Y-68284760D01*
X197896345Y-68270945D01*
X198042568Y-68227910D01*
X198177647Y-68157292D01*
X198296437Y-68061782D01*
X198394414Y-67945018D01*
X198467845Y-67811448D01*
X198513933Y-67666158D01*
X198523194Y-67583600D01*
X199475046Y-67583600D01*
X197567255Y-69491391D01*
X197567255Y-69491391D01*
G37*
X197567255Y-69491391D02*
X197537591Y-69527505D01*
X197530999Y-69535361D01*
X197530999Y-68249648D01*
X197592958Y-68268827D01*
X197744548Y-68284760D01*
X197896345Y-68270945D01*
X198042568Y-68227910D01*
X198177647Y-68157292D01*
X198296437Y-68061782D01*
X198394414Y-67945018D01*
X198467845Y-67811448D01*
X198513933Y-67666158D01*
X198523194Y-67583600D01*
X199475046Y-67583600D01*
X197567255Y-69491391D01*
G36*
X199511204Y-62568996D02*
X199547318Y-62598660D01*
X199583127Y-62628707D01*
X199585458Y-62629989D01*
X199587515Y-62631678D01*
X199628699Y-62653761D01*
X199669665Y-62676282D01*
X199672203Y-62677087D01*
X199674547Y-62678344D01*
X199719222Y-62692003D01*
X199763797Y-62706143D01*
X199766443Y-62706440D01*
X199768985Y-62707217D01*
X199815455Y-62711937D01*
X199828635Y-62713416D01*
X199832140Y-62718735D01*
X199914130Y-62788615D01*
X200012342Y-62832886D01*
X200119000Y-62848043D01*
X200373327Y-62848043D01*
X199102390Y-64118980D01*
X197893622Y-64118980D01*
X197872512Y-64097722D01*
X197761793Y-64023041D01*
X197638678Y-63971288D01*
X197507854Y-63944434D01*
X197374307Y-63943501D01*
X197243121Y-63968526D01*
X197119295Y-64018555D01*
X197007544Y-64091683D01*
X196912126Y-64185124D01*
X196836674Y-64295318D01*
X196784062Y-64418070D01*
X196756296Y-64548702D01*
X196754431Y-64682240D01*
X196778539Y-64813597D01*
X196827703Y-64937770D01*
X196900048Y-65050028D01*
X196992821Y-65146097D01*
X197102486Y-65222316D01*
X197224867Y-65275783D01*
X197355303Y-65304461D01*
X197488824Y-65307258D01*
X197620346Y-65284067D01*
X197744859Y-65235772D01*
X197819767Y-65188234D01*
X197818105Y-65307260D01*
X197842213Y-65438617D01*
X197856979Y-65475911D01*
X197755452Y-65465240D01*
X197603655Y-65479055D01*
X197457432Y-65522090D01*
X197322353Y-65592708D01*
X197203563Y-65688218D01*
X197105586Y-65804982D01*
X197032155Y-65938552D01*
X196986067Y-66083842D01*
X196969076Y-66235317D01*
X196969000Y-66246221D01*
X196969000Y-66253779D01*
X196983874Y-66405476D01*
X197027930Y-66551395D01*
X197099489Y-66685978D01*
X197195825Y-66804098D01*
X197281856Y-66875269D01*
X197203563Y-66938218D01*
X197198711Y-66944000D01*
X196731341Y-66944000D01*
X196506019Y-66718679D01*
X196506019Y-62873346D01*
X197073365Y-62306000D01*
X197198124Y-62306000D01*
X197313270Y-62401257D01*
X197447350Y-62473754D01*
X197592958Y-62518827D01*
X197744548Y-62534760D01*
X197896345Y-62520945D01*
X198042568Y-62477910D01*
X198177647Y-62407292D01*
X198296437Y-62311782D01*
X198394414Y-62195018D01*
X198467845Y-62061448D01*
X198513933Y-61916158D01*
X198530924Y-61764683D01*
X198531000Y-61753779D01*
X198531000Y-61746221D01*
X198516126Y-61594524D01*
X198507214Y-61565006D01*
X199511204Y-62568996D01*
X199511204Y-62568996D01*
G37*
X199511204Y-62568996D02*
X199547318Y-62598660D01*
X199583127Y-62628707D01*
X199585458Y-62629989D01*
X199587515Y-62631678D01*
X199628699Y-62653761D01*
X199669665Y-62676282D01*
X199672203Y-62677087D01*
X199674547Y-62678344D01*
X199719222Y-62692003D01*
X199763797Y-62706143D01*
X199766443Y-62706440D01*
X199768985Y-62707217D01*
X199815455Y-62711937D01*
X199828635Y-62713416D01*
X199832140Y-62718735D01*
X199914130Y-62788615D01*
X200012342Y-62832886D01*
X200119000Y-62848043D01*
X200373327Y-62848043D01*
X199102390Y-64118980D01*
X197893622Y-64118980D01*
X197872512Y-64097722D01*
X197761793Y-64023041D01*
X197638678Y-63971288D01*
X197507854Y-63944434D01*
X197374307Y-63943501D01*
X197243121Y-63968526D01*
X197119295Y-64018555D01*
X197007544Y-64091683D01*
X196912126Y-64185124D01*
X196836674Y-64295318D01*
X196784062Y-64418070D01*
X196756296Y-64548702D01*
X196754431Y-64682240D01*
X196778539Y-64813597D01*
X196827703Y-64937770D01*
X196900048Y-65050028D01*
X196992821Y-65146097D01*
X197102486Y-65222316D01*
X197224867Y-65275783D01*
X197355303Y-65304461D01*
X197488824Y-65307258D01*
X197620346Y-65284067D01*
X197744859Y-65235772D01*
X197819767Y-65188234D01*
X197818105Y-65307260D01*
X197842213Y-65438617D01*
X197856979Y-65475911D01*
X197755452Y-65465240D01*
X197603655Y-65479055D01*
X197457432Y-65522090D01*
X197322353Y-65592708D01*
X197203563Y-65688218D01*
X197105586Y-65804982D01*
X197032155Y-65938552D01*
X196986067Y-66083842D01*
X196969076Y-66235317D01*
X196969000Y-66246221D01*
X196969000Y-66253779D01*
X196983874Y-66405476D01*
X197027930Y-66551395D01*
X197099489Y-66685978D01*
X197195825Y-66804098D01*
X197281856Y-66875269D01*
X197203563Y-66938218D01*
X197198711Y-66944000D01*
X196731341Y-66944000D01*
X196506019Y-66718679D01*
X196506019Y-62873346D01*
X197073365Y-62306000D01*
X197198124Y-62306000D01*
X197313270Y-62401257D01*
X197447350Y-62473754D01*
X197592958Y-62518827D01*
X197744548Y-62534760D01*
X197896345Y-62520945D01*
X198042568Y-62477910D01*
X198177647Y-62407292D01*
X198296437Y-62311782D01*
X198394414Y-62195018D01*
X198467845Y-62061448D01*
X198513933Y-61916158D01*
X198530924Y-61764683D01*
X198531000Y-61753779D01*
X198531000Y-61746221D01*
X198516126Y-61594524D01*
X198507214Y-61565006D01*
X199511204Y-62568996D01*
M02*
