M48
INCH,TZ
T1C0.016
T2C0.020
T3C0.035
%
G90
G05
T1
X71949Y-22047
X72047Y-29724
X72146Y-27461
X72343Y-28740
X72441Y-28346
X72638Y-24705
X72707Y-23228
X72933Y-26575
X73031Y-28840
X74508Y-25591
X74606Y-27293
X74803Y-28839
X75394Y-28839
X76181Y-17618
X76476Y-30709
X76858Y-24189
X76969Y-30807
X77018Y-17704
X77027Y-27904
X77067Y-22835
X77067Y-29429
X77264Y-30118
X77323Y-16831
X77411Y-24790
X77411Y-26230
X77731Y-25443
X77923Y-27854
X77953Y-23425
X78051Y-23031
X78150Y-25689
X78445Y-27461
X78573Y-31250
X78830Y-30503
X78839Y-29134
X78839Y-30118
T2
X77854Y-19291
X77854Y-19783
X77854Y-20276
X77854Y-21555
X77854Y-22047
X77854Y-22539
X77854Y-23819
X77854Y-24311
X77854Y-24803
X77854Y-26083
X77854Y-26575
X77854Y-27067
X77854Y-28346
X77854Y-28839
X77854Y-29331
X77854Y-29823
X77854Y-30315
X77854Y-30807
T3
X71673Y-17618
X73405Y-17618
T0
M30
