%TF.GenerationSoftware,KiCad,Pcbnew,4.0.2-stable*%
%TF.CreationDate,2016-06-26T16:54:10-05:00*%
%TF.ProjectId,knee,6B6E65652E6B696361645F7063620000,rev?*%
%TF.FileFunction,Legend,Bot*%
%FSLAX46Y46*%
G04 Gerber Fmt 4.6, Leading zero omitted, Abs format (unit mm)*
G04 Created by KiCad (PCBNEW 4.0.2-stable) date 6/26/2016 4:54:10 PM*
%MOMM*%
G01*
G04 APERTURE LIST*
%ADD10C,0.100000*%
%ADD11C,0.150000*%
%ADD12C,0.378460*%
%ADD13C,0.127000*%
%ADD14C,0.304800*%
G04 APERTURE END LIST*
D10*
D11*
X194850000Y-43625000D02*
X196050000Y-43625000D01*
X196050000Y-41875000D02*
X194850000Y-41875000D01*
X190950000Y-43625000D02*
X192150000Y-43625000D01*
X192150000Y-41875000D02*
X190950000Y-41875000D01*
X184500000Y-42850000D02*
X183500000Y-42850000D01*
X183500000Y-41150000D02*
X184500000Y-41150000D01*
X184900000Y-46625000D02*
X183700000Y-46625000D01*
X183700000Y-48375000D02*
X184900000Y-48375000D01*
X201125000Y-74550000D02*
X201125000Y-73350000D01*
X199375000Y-73350000D02*
X199375000Y-74550000D01*
D12*
X182799080Y-78797040D02*
X182799080Y-75997960D01*
X181498600Y-78797040D02*
X181498600Y-75997960D01*
X182801620Y-76000500D02*
X181501140Y-76000500D01*
X185397500Y-78799580D02*
X185397500Y-76000500D01*
X184097020Y-78799580D02*
X184097020Y-76000500D01*
X185400040Y-76003040D02*
X184099560Y-76003040D01*
X184097020Y-78802120D02*
X182796540Y-78802120D01*
X187998460Y-78799580D02*
X187998460Y-76000500D01*
X186697980Y-78799580D02*
X186697980Y-76000500D01*
X188001000Y-76003040D02*
X186700520Y-76003040D01*
X186697980Y-78802120D02*
X185397500Y-78802120D01*
X191899900Y-78799580D02*
X191899900Y-74499360D01*
X190599420Y-78799580D02*
X190599420Y-76000500D01*
X189298940Y-78799580D02*
X189298940Y-76000500D01*
X183799840Y-53899960D02*
X183799840Y-59800380D01*
X191800840Y-59800380D02*
X191800840Y-53899960D01*
X183799840Y-59802920D02*
X191800840Y-59802920D01*
X191800840Y-53899960D02*
X183799840Y-53899960D01*
X191800840Y-69200920D02*
X191800840Y-61199920D01*
X191800840Y-61199920D02*
X183799840Y-61199920D01*
X183799840Y-61199920D02*
X183799840Y-69200920D01*
X183799840Y-69200920D02*
X191800840Y-69200920D01*
X181498600Y-78799580D02*
X181099820Y-78799580D01*
X190601960Y-76003040D02*
X189301480Y-76003040D01*
X189298940Y-78802120D02*
X187998460Y-78802120D01*
X191899900Y-78802120D02*
X190599420Y-78802120D01*
X192900660Y-74499360D02*
X180099060Y-74499360D01*
X180099060Y-52500420D02*
X180099060Y-79500620D01*
X180099060Y-79500620D02*
X192900660Y-79500620D01*
X192900660Y-79500620D02*
X192900660Y-52500420D01*
X192900660Y-52500420D02*
X180099060Y-52500420D01*
D11*
X195616666Y-41102381D02*
X195950000Y-40626190D01*
X196188095Y-41102381D02*
X196188095Y-40102381D01*
X195807142Y-40102381D01*
X195711904Y-40150000D01*
X195664285Y-40197619D01*
X195616666Y-40292857D01*
X195616666Y-40435714D01*
X195664285Y-40530952D01*
X195711904Y-40578571D01*
X195807142Y-40626190D01*
X196188095Y-40626190D01*
X195045238Y-40530952D02*
X195140476Y-40483333D01*
X195188095Y-40435714D01*
X195235714Y-40340476D01*
X195235714Y-40292857D01*
X195188095Y-40197619D01*
X195140476Y-40150000D01*
X195045238Y-40102381D01*
X194854761Y-40102381D01*
X194759523Y-40150000D01*
X194711904Y-40197619D01*
X194664285Y-40292857D01*
X194664285Y-40340476D01*
X194711904Y-40435714D01*
X194759523Y-40483333D01*
X194854761Y-40530952D01*
X195045238Y-40530952D01*
X195140476Y-40578571D01*
X195188095Y-40626190D01*
X195235714Y-40721429D01*
X195235714Y-40911905D01*
X195188095Y-41007143D01*
X195140476Y-41054762D01*
X195045238Y-41102381D01*
X194854761Y-41102381D01*
X194759523Y-41054762D01*
X194711904Y-41007143D01*
X194664285Y-40911905D01*
X194664285Y-40721429D01*
X194711904Y-40626190D01*
X194759523Y-40578571D01*
X194854761Y-40530952D01*
X191716666Y-41102381D02*
X192050000Y-40626190D01*
X192288095Y-41102381D02*
X192288095Y-40102381D01*
X191907142Y-40102381D01*
X191811904Y-40150000D01*
X191764285Y-40197619D01*
X191716666Y-40292857D01*
X191716666Y-40435714D01*
X191764285Y-40530952D01*
X191811904Y-40578571D01*
X191907142Y-40626190D01*
X192288095Y-40626190D01*
X191240476Y-41102381D02*
X191050000Y-41102381D01*
X190954761Y-41054762D01*
X190907142Y-41007143D01*
X190811904Y-40864286D01*
X190764285Y-40673810D01*
X190764285Y-40292857D01*
X190811904Y-40197619D01*
X190859523Y-40150000D01*
X190954761Y-40102381D01*
X191145238Y-40102381D01*
X191240476Y-40150000D01*
X191288095Y-40197619D01*
X191335714Y-40292857D01*
X191335714Y-40530952D01*
X191288095Y-40626190D01*
X191240476Y-40673810D01*
X191145238Y-40721429D01*
X190954761Y-40721429D01*
X190859523Y-40673810D01*
X190811904Y-40626190D01*
X190764285Y-40530952D01*
X184166666Y-44457143D02*
X184214285Y-44504762D01*
X184357142Y-44552381D01*
X184452380Y-44552381D01*
X184595238Y-44504762D01*
X184690476Y-44409524D01*
X184738095Y-44314286D01*
X184785714Y-44123810D01*
X184785714Y-43980952D01*
X184738095Y-43790476D01*
X184690476Y-43695238D01*
X184595238Y-43600000D01*
X184452380Y-43552381D01*
X184357142Y-43552381D01*
X184214285Y-43600000D01*
X184166666Y-43647619D01*
X183833333Y-43552381D02*
X183166666Y-43552381D01*
X183595238Y-44552381D01*
D13*
X201232714Y-60865001D02*
X201777000Y-60865001D01*
X201885857Y-60828715D01*
X201958429Y-60756144D01*
X201994714Y-60647287D01*
X201994714Y-60574715D01*
X201994714Y-61227858D02*
X201232714Y-61227858D01*
X201232714Y-61518143D01*
X201269000Y-61590715D01*
X201305286Y-61627000D01*
X201377857Y-61663286D01*
X201486714Y-61663286D01*
X201559286Y-61627000D01*
X201595571Y-61590715D01*
X201631857Y-61518143D01*
X201631857Y-61227858D01*
X201994714Y-62389000D02*
X201994714Y-61953572D01*
X201994714Y-62171286D02*
X201232714Y-62171286D01*
X201341571Y-62098715D01*
X201414143Y-62026143D01*
X201450429Y-61953572D01*
X198932714Y-67153801D02*
X199477000Y-67153801D01*
X199585857Y-67117515D01*
X199658429Y-67044944D01*
X199694714Y-66936087D01*
X199694714Y-66863515D01*
X199694714Y-67516658D02*
X198932714Y-67516658D01*
X198932714Y-67806943D01*
X198969000Y-67879515D01*
X199005286Y-67915800D01*
X199077857Y-67952086D01*
X199186714Y-67952086D01*
X199259286Y-67915800D01*
X199295571Y-67879515D01*
X199331857Y-67806943D01*
X199331857Y-67516658D01*
X199005286Y-68242372D02*
X198969000Y-68278658D01*
X198932714Y-68351229D01*
X198932714Y-68532658D01*
X198969000Y-68605229D01*
X199005286Y-68641515D01*
X199077857Y-68677800D01*
X199150429Y-68677800D01*
X199259286Y-68641515D01*
X199694714Y-68206086D01*
X199694714Y-68677800D01*
D11*
X184942857Y-50052381D02*
X185276191Y-49576190D01*
X185514286Y-50052381D02*
X185514286Y-49052381D01*
X185133333Y-49052381D01*
X185038095Y-49100000D01*
X184990476Y-49147619D01*
X184942857Y-49242857D01*
X184942857Y-49385714D01*
X184990476Y-49480952D01*
X185038095Y-49528571D01*
X185133333Y-49576190D01*
X185514286Y-49576190D01*
X183990476Y-50052381D02*
X184561905Y-50052381D01*
X184276191Y-50052381D02*
X184276191Y-49052381D01*
X184371429Y-49195238D01*
X184466667Y-49290476D01*
X184561905Y-49338095D01*
X183371429Y-49052381D02*
X183276190Y-49052381D01*
X183180952Y-49100000D01*
X183133333Y-49147619D01*
X183085714Y-49242857D01*
X183038095Y-49433333D01*
X183038095Y-49671429D01*
X183085714Y-49861905D01*
X183133333Y-49957143D01*
X183180952Y-50004762D01*
X183276190Y-50052381D01*
X183371429Y-50052381D01*
X183466667Y-50004762D01*
X183514286Y-49957143D01*
X183561905Y-49861905D01*
X183609524Y-49671429D01*
X183609524Y-49433333D01*
X183561905Y-49242857D01*
X183514286Y-49147619D01*
X183466667Y-49100000D01*
X183371429Y-49052381D01*
X198602381Y-73307143D02*
X198126190Y-72973809D01*
X198602381Y-72735714D02*
X197602381Y-72735714D01*
X197602381Y-73116667D01*
X197650000Y-73211905D01*
X197697619Y-73259524D01*
X197792857Y-73307143D01*
X197935714Y-73307143D01*
X198030952Y-73259524D01*
X198078571Y-73211905D01*
X198126190Y-73116667D01*
X198126190Y-72735714D01*
X198602381Y-74259524D02*
X198602381Y-73688095D01*
X198602381Y-73973809D02*
X197602381Y-73973809D01*
X197745238Y-73878571D01*
X197840476Y-73783333D01*
X197888095Y-73688095D01*
X198602381Y-75211905D02*
X198602381Y-74640476D01*
X198602381Y-74926190D02*
X197602381Y-74926190D01*
X197745238Y-74830952D01*
X197840476Y-74735714D01*
X197888095Y-74640476D01*
D14*
X187661003Y-79765869D02*
X187661003Y-80999583D01*
X187588431Y-81144726D01*
X187515860Y-81217297D01*
X187370717Y-81289869D01*
X187080431Y-81289869D01*
X186935289Y-81217297D01*
X186862717Y-81144726D01*
X186790146Y-80999583D01*
X186790146Y-79765869D01*
X186137003Y-79911011D02*
X186064432Y-79838440D01*
X185919289Y-79765869D01*
X185556432Y-79765869D01*
X185411289Y-79838440D01*
X185338718Y-79911011D01*
X185266146Y-80056154D01*
X185266146Y-80201297D01*
X185338718Y-80419011D01*
X186209575Y-81289869D01*
X185266146Y-81289869D01*
X193720717Y-50690489D02*
X193720717Y-49166489D01*
X193212717Y-49166489D02*
X192341860Y-49166489D01*
X192777289Y-50690489D02*
X192777289Y-49166489D01*
X191833860Y-49892203D02*
X191325860Y-49892203D01*
X191108146Y-50690489D02*
X191833860Y-50690489D01*
X191833860Y-49166489D01*
X191108146Y-49166489D01*
X190527574Y-50255060D02*
X189801860Y-50255060D01*
X190672717Y-50690489D02*
X190164717Y-49166489D01*
X189656717Y-50690489D01*
X189148717Y-50690489D02*
X189148717Y-49166489D01*
X188785860Y-49166489D01*
X188568145Y-49239060D01*
X188423003Y-49384203D01*
X188350431Y-49529346D01*
X188277860Y-49819631D01*
X188277860Y-50037346D01*
X188350431Y-50327631D01*
X188423003Y-50472774D01*
X188568145Y-50617917D01*
X188785860Y-50690489D01*
X189148717Y-50690489D01*
X187987574Y-50835631D02*
X186826431Y-50835631D01*
X186463574Y-50690489D02*
X186463574Y-49166489D01*
X186463574Y-49892203D02*
X185592717Y-49892203D01*
X185592717Y-50690489D02*
X185592717Y-49166489D01*
X183996146Y-50545346D02*
X184068717Y-50617917D01*
X184286431Y-50690489D01*
X184431574Y-50690489D01*
X184649289Y-50617917D01*
X184794431Y-50472774D01*
X184867003Y-50327631D01*
X184939574Y-50037346D01*
X184939574Y-49819631D01*
X184867003Y-49529346D01*
X184794431Y-49384203D01*
X184649289Y-49239060D01*
X184431574Y-49166489D01*
X184286431Y-49166489D01*
X184068717Y-49239060D01*
X183996146Y-49311631D01*
X183343003Y-50109917D02*
X182181860Y-50109917D01*
X181165860Y-49166489D02*
X181020717Y-49166489D01*
X180875574Y-49239060D01*
X180803003Y-49311631D01*
X180730432Y-49456774D01*
X180657860Y-49747060D01*
X180657860Y-50109917D01*
X180730432Y-50400203D01*
X180803003Y-50545346D01*
X180875574Y-50617917D01*
X181020717Y-50690489D01*
X181165860Y-50690489D01*
X181311003Y-50617917D01*
X181383574Y-50545346D01*
X181456146Y-50400203D01*
X181528717Y-50109917D01*
X181528717Y-49747060D01*
X181456146Y-49456774D01*
X181383574Y-49311631D01*
X181311003Y-49239060D01*
X181165860Y-49166489D01*
X179279003Y-49166489D02*
X180004717Y-49166489D01*
X180077288Y-49892203D01*
X180004717Y-49819631D01*
X179859574Y-49747060D01*
X179496717Y-49747060D01*
X179351574Y-49819631D01*
X179279003Y-49892203D01*
X179206431Y-50037346D01*
X179206431Y-50400203D01*
X179279003Y-50545346D01*
X179351574Y-50617917D01*
X179496717Y-50690489D01*
X179859574Y-50690489D01*
X180004717Y-50617917D01*
X180077288Y-50545346D01*
M02*
